<svg xmlns="http://www.w3.org/2000/svg" xmlns:xlink="http://www.w3.org/1999/xlink" viewBox="0 0 24.84 44.95"><defs><style>.cls-1{isolation:isolate;}.cls-2{fill:url(#linear-gradient);}.cls-3{fill:#34254a;}.cls-4{fill:#261b36;opacity:0.34;}.cls-31,.cls-33,.cls-34,.cls-38,.cls-4,.cls-5{mix-blend-mode:overlay;}.cls-5{fill:#eee3ff;opacity:0.62;}.cls-6{fill:url(#linear-gradient-2);}.cls-7{fill:url(#radial-gradient);}.cls-8{fill:#385e8f;}.cls-9{fill:#fff;}.cls-10{fill:url(#radial-gradient-2);}.cls-11{fill:url(#radial-gradient-3);}.cls-12{fill:url(#radial-gradient-4);}.cls-13{fill:url(#radial-gradient-5);}.cls-14{fill:url(#radial-gradient-6);}.cls-15{fill:url(#radial-gradient-7);}.cls-16{fill:url(#radial-gradient-8);}.cls-17{fill:url(#radial-gradient-9);}.cls-18{fill:url(#radial-gradient-10);}.cls-19{fill:none;stroke:#385e8f;stroke-miterlimit:10;stroke-width:0.35px;}.cls-20{fill:url(#radial-gradient-11);}.cls-21{fill:url(#radial-gradient-12);}.cls-22{fill:url(#radial-gradient-13);}.cls-23{fill:url(#radial-gradient-14);}.cls-24{fill:url(#radial-gradient-15);}.cls-25{fill:url(#radial-gradient-16);}.cls-26{fill:url(#radial-gradient-17);}.cls-27{fill:url(#radial-gradient-18);}.cls-28{fill:url(#radial-gradient-19);}.cls-29{fill:url(#radial-gradient-20);}.cls-30{fill:#85c3f7;}.cls-31{fill:url(#linear-gradient-3);}.cls-32{fill:url(#linear-gradient-4);}.cls-35,.cls-38{fill:#ffe0b0;}.cls-36{fill:url(#linear-gradient-5);}.cls-37{fill:url(#linear-gradient-6);}</style><linearGradient id="linear-gradient" x1="-1.33" y1="3.24" x2="8.76" y2="12.52" gradientUnits="userSpaceOnUse"><stop offset="0" stop-color="#8c76ae"/><stop offset="0.13" stop-color="#826da2"/><stop offset="0.46" stop-color="#6c5a88"/><stop offset="0.76" stop-color="#604f78"/><stop offset="1" stop-color="#5b4b73"/></linearGradient><linearGradient id="linear-gradient-2" x1="-1320.56" y1="-397.6" x2="-1310.47" y2="-388.31" gradientTransform="translate(-582.35 1236.2) rotate(99.5)" xlink:href="#linear-gradient"/><radialGradient id="radial-gradient" cx="27.95" cy="643.59" r="13.16" gradientTransform="matrix(0.76, -0.65, 0.65, 0.76, -434.8, -456.35)" gradientUnits="userSpaceOnUse"><stop offset="0.12" stop-color="#e8f9ff"/><stop offset="0.14" stop-color="#e4f8ff"/><stop offset="0.25" stop-color="#caf2ff"/><stop offset="0.35" stop-color="#baeeff"/><stop offset="0.42" stop-color="#b5edff"/><stop offset="0.54" stop-color="#d4f3ff"/><stop offset="0.66" stop-color="#c0efff"/><stop offset="0.8" stop-color="#b0ebff"/><stop offset="0.9" stop-color="#abeaff"/></radialGradient><radialGradient id="radial-gradient-2" cx="29.92" cy="652.56" r="12.88" xlink:href="#radial-gradient"/><radialGradient id="radial-gradient-3" cx="32.5" cy="636.4" r="15.31" xlink:href="#radial-gradient"/><radialGradient id="radial-gradient-4" cx="44.95" cy="640.94" r="9.89" xlink:href="#radial-gradient"/><radialGradient id="radial-gradient-5" cx="43.8" cy="655.01" r="11.58" xlink:href="#radial-gradient"/><radialGradient id="radial-gradient-6" cx="32.06" cy="654.83" r="14.4" xlink:href="#radial-gradient"/><radialGradient id="radial-gradient-7" cx="41.29" cy="643.16" r="11.27" xlink:href="#radial-gradient"/><radialGradient id="radial-gradient-8" cx="32.97" cy="647.42" r="12.1" xlink:href="#radial-gradient"/><radialGradient id="radial-gradient-9" cx="41.71" cy="651.56" r="12.8" xlink:href="#radial-gradient"/><radialGradient id="radial-gradient-10" cx="38.02" cy="647.77" r="12.64" xlink:href="#radial-gradient"/><radialGradient id="radial-gradient-11" cx="-817.35" cy="1289.49" r="8.33" gradientTransform="matrix(-0.34, -0.94, 0.94, -0.34, -1481.14, -301.37)" xlink:href="#radial-gradient"/><radialGradient id="radial-gradient-12" cx="-816.11" cy="1295.09" r="8.06" gradientTransform="matrix(-0.34, -0.94, 0.94, -0.34, -1481.14, -301.37)" xlink:href="#radial-gradient"/><radialGradient id="radial-gradient-13" cx="-814.49" cy="1285.02" r="9.67" gradientTransform="matrix(-0.34, -0.94, 0.94, -0.34, -1481.14, -301.37)" xlink:href="#radial-gradient"/><radialGradient id="radial-gradient-14" cx="-806.79" cy="1287.92" r="6.21" gradientTransform="matrix(-0.34, -0.94, 0.94, -0.34, -1481.14, -301.37)" xlink:href="#radial-gradient"/><radialGradient id="radial-gradient-15" cx="-807.53" cy="1296.64" r="7.25" gradientTransform="matrix(-0.34, -0.94, 0.94, -0.34, -1481.14, -301.37)" xlink:href="#radial-gradient"/><radialGradient id="radial-gradient-16" cx="-814.82" cy="1296.51" r="9.1" gradientTransform="matrix(-0.34, -0.94, 0.94, -0.34, -1481.14, -301.37)" xlink:href="#radial-gradient"/><radialGradient id="radial-gradient-17" cx="-809.04" cy="1289.27" r="7.14" gradientTransform="matrix(-0.34, -0.94, 0.94, -0.34, -1481.14, -301.37)" xlink:href="#radial-gradient"/><radialGradient id="radial-gradient-18" cx="-814.23" cy="1291.89" r="7.64" gradientTransform="matrix(-0.34, -0.94, 0.94, -0.34, -1481.14, -301.37)" xlink:href="#radial-gradient"/><radialGradient id="radial-gradient-19" cx="-808.8" cy="1294.5" r="8.08" gradientTransform="matrix(-0.34, -0.94, 0.94, -0.34, -1481.14, -301.37)" xlink:href="#radial-gradient"/><radialGradient id="radial-gradient-20" cx="-811.09" cy="1292.13" r="8.02" gradientTransform="matrix(-0.34, -0.94, 0.94, -0.34, -1481.14, -301.37)" xlink:href="#radial-gradient"/><linearGradient id="linear-gradient-3" x1="3.13" y1="15.76" x2="2.91" y2="19.4" gradientUnits="userSpaceOnUse"><stop offset="0" stop-color="#75c0ff"/><stop offset="0.07" stop-color="#81c5ff" stop-opacity="0.85"/><stop offset="0.21" stop-color="#94ceff" stop-opacity="0.59"/><stop offset="0.34" stop-color="#a5d6ff" stop-opacity="0.38"/><stop offset="0.45" stop-color="#b1dbff" stop-opacity="0.22"/><stop offset="0.56" stop-color="#bae0ff" stop-opacity="0.1"/><stop offset="0.65" stop-color="#c0e2ff" stop-opacity="0.03"/><stop offset="0.72" stop-color="#c2e3ff" stop-opacity="0"/></linearGradient><linearGradient id="linear-gradient-4" x1="10.31" y1="32.82" x2="10.31" y2="36.47" gradientUnits="userSpaceOnUse"><stop offset="0.24" stop-color="#f7daaf"/><stop offset="0.35" stop-color="#f9d7a2"/><stop offset="0.6" stop-color="#fcd288"/><stop offset="0.82" stop-color="#fece78"/><stop offset="1" stop-color="#ffcd73"/></linearGradient><linearGradient id="linear-gradient-5" x1="10.31" y1="30.62" x2="10.31" y2="32.06" xlink:href="#linear-gradient-4"/><linearGradient id="linear-gradient-6" x1="10.31" y1="36.99" x2="10.31" y2="44.87" gradientUnits="userSpaceOnUse"><stop offset="0" stop-color="#9ffaf5"/><stop offset="1" stop-color="#75c9c7"/></linearGradient></defs><g class="cls-1"><g id="Layer_2" data-name="Layer 2"><g id="Layer_1-2" data-name="Layer 1"><path class="cls-2" d="M6.92,13.32a.72.72,0,0,1-.28,0A.91.91,0,0,1,6,12.8H6c-1.08,0-2.46-.1-2.9-.59a1.08,1.08,0,0,1-.3-1.06c-.66-.21-1.52-.57-1.54-1a.73.73,0,0,1,.2-.58C.74,8.83,0,7.64.27,6.8a1.21,1.21,0,0,1,1-.83,3.73,3.73,0,0,1,.84-.09,5.43,5.43,0,0,1,1,.1.38.38,0,0,1,.09-.15.54.54,0,0,1,.4-.16,3.87,3.87,0,0,1,1.75,1A.82.82,0,0,1,6,6.39h.12a3.52,3.52,0,0,1,1.28.4,11.48,11.48,0,0,1,3,2.39h0l.06.06a9.13,9.13,0,0,1,.65.72.24.24,0,0,1,0,.14V12.2a.23.23,0,0,1-.17.22s-1.28.36-2.44.62a.15.15,0,0,1-.09,0L8,13.17A6,6,0,0,1,6.92,13.32Z"/><path class="cls-3" d="M3.64,5.9C4.29,5.92,5.47,7,5.47,7s0-.38.55-.38h.1A3.32,3.32,0,0,1,7.32,7a11.35,11.35,0,0,1,3,2.34l0,0c.42.43.67.75.67.75V12.2s-1.29.37-2.46.63H8.45L8,13H8a5.56,5.56,0,0,1-1,.14.62.62,0,0,1-.21,0c-.57-.19-.51-.5-.51-.5H6c-.63,0-2.31,0-2.73-.51A.79.79,0,0,1,3.07,11s-1.62-.46-1.64-.9a.5.5,0,0,1,.34-.53C1.12,9,.25,7.69.49,6.86a1,1,0,0,1,.84-.67,3.47,3.47,0,0,1,.79-.08,5.52,5.52,0,0,1,1.23.14c0-.2,0-.35.29-.35m0-.45a.69.69,0,0,0-.56.23L3,5.73a5.84,5.84,0,0,0-.91-.07,4.13,4.13,0,0,0-.89.09,1.45,1.45,0,0,0-1.17,1c-.27.92.42,2.09,1.06,2.82a1,1,0,0,0-.14.58c0,.44.53.84,1.52,1.17a1.31,1.31,0,0,0,.39,1.07c.38.42,1.39.65,3,.65a1.27,1.27,0,0,0,.69.48,1.12,1.12,0,0,0,.35,0A6.55,6.55,0,0,0,8,13.4h.05l.19,0,.28-.06h0l.11,0c1.15-.26,2.4-.61,2.41-.62a.44.44,0,0,0,.33-.43V10.11a.47.47,0,0,0-.09-.28s-.28-.34-.71-.78h0V9A12.05,12.05,0,0,0,7.52,6.59a3.82,3.82,0,0,0-1.38-.42H6a1.12,1.12,0,0,0-.63.17,3.67,3.67,0,0,0-1.74-.89Z"/><path class="cls-4" d="M11,10.11V12.2s-3.68,1.06-4.26.87-.51-.5-.51-.5-2.46.07-3-.51A.79.79,0,0,1,3.07,11s-1.62-.46-1.64-.9a.5.5,0,0,1,.34-.53C1.12,9,.25,7.69.49,6.86a5.23,5.23,0,0,0,3,3.08c2.31.8,4.14.69,4.38-.86C8.08,7.9,6.77,7,6.12,6.62A3.32,3.32,0,0,1,7.32,7,13.37,13.37,0,0,1,11,10.11Z"/><path class="cls-5" d="M7.07,12.85A2.17,2.17,0,0,0,8,13a3.48,3.48,0,0,1-1.24.12c-.57-.19-.51-.5-.51-.5s-2.46.07-3-.51A.79.79,0,0,1,3.07,11s-1.62-.46-1.64-.9a.5.5,0,0,1,.34-.53C1.12,9,.25,7.69.49,6.86a1,1,0,0,1,.84-.67,4.75,4.75,0,0,1,2,.06c0-.2,0-.35.29-.35C4.29,5.92,5.47,7,5.47,7s0-.43.65-.38A3.32,3.32,0,0,1,7.32,7a11.35,11.35,0,0,1,3,2.34C9.17,8.43,7.4,7.07,6.72,7c-1-.09-1,.45-1,.45S4.44,6.33,4,6.33s-.26.5-.26.5a4,4,0,0,0-2.53-.07c-.89.49.9,2.83.9,2.83s-.48.29-.17.62a6,6,0,0,0,1.79.69.71.71,0,0,0,0,1c.46.44,2.9.32,2.9.32S6.32,12.6,7.07,12.85Z"/><path class="cls-3" d="M10.7,11.43a29,29,0,0,1-4-1.43A23.05,23.05,0,0,1,3.05,8a26,26,0,0,0,7.75,3h0a.24.24,0,0,1,.17.27.23.23,0,0,1-.27.17Z"/><path class="cls-6" d="M16.83,10.24a.23.23,0,0,1-.19-.2s-.15-1.33-.21-2.51a.34.34,0,0,1,0-.1c0-.11,0-.49,0-.49a3,3,0,0,1,.11-1.37A1,1,0,0,1,17.09,5c.11-.67.44-2.42,1.07-2.82A1.19,1.19,0,0,1,18.83,2a.91.91,0,0,1,.43.1c.27-.54.77-1.36,1.22-1.36a.81.81,0,0,1,.58.3,4.58,4.58,0,0,1,2.25-.8A1.48,1.48,0,0,1,24,.36a1.21,1.21,0,0,1,.65,1.13,4.82,4.82,0,0,1-.32,1.84.37.37,0,0,1,.13.12.47.47,0,0,1,.09.41,3.73,3.73,0,0,1-1.24,1.57l.05.06a.91.91,0,0,1,.07.72,3.6,3.6,0,0,1-.61,1.19A11.42,11.42,0,0,1,19.92,10h0l-.08,0a8,8,0,0,1-.81.52.19.19,0,0,1-.1,0Z"/><path class="cls-3" d="M23.31.45a1.23,1.23,0,0,1,.55.11,1,1,0,0,1,.52.94,4.67,4.67,0,0,1-.39,2c.2,0,.34.1.3.35-.13.63-1.39,1.62-1.39,1.62s.42.08.27.7a3.51,3.51,0,0,1-.57,1.12,11.32,11.32,0,0,1-2.8,2.54h0a9.83,9.83,0,0,1-.85.54L16.87,10s-.16-1.34-.22-2.53v0s0,0,0,0,0-.33,0-.49v0a3.48,3.48,0,0,1,.09-1.24c.2-.37.41-.43.51-.43h.07s.33-2.44,1-2.85a1,1,0,0,1,.55-.19.73.73,0,0,1,.51.21S20,1,20.48,1h0a.5.5,0,0,1,.47.42A4.44,4.44,0,0,1,23.31.45m0-.45h0A4.58,4.58,0,0,0,21.1.74,1,1,0,0,0,20.55.5h-.07c-.42,0-.87.44-1.33,1.31a1.07,1.07,0,0,0-.32-.05A1.46,1.46,0,0,0,18,2c-.66.42-1,2-1.14,2.84a1.33,1.33,0,0,0-.58.6,3.1,3.1,0,0,0-.14,1.44v.24c0,.09,0,.19,0,.29v0s0,.08,0,.12c.07,1.18.22,2.47.22,2.49a.44.44,0,0,0,.37.39l2.06.34h.08a.5.5,0,0,0,.21-.05,8.55,8.55,0,0,0,.89-.57h0A11.72,11.72,0,0,0,23,7.53a3.67,3.67,0,0,0,.65-1.29,1.15,1.15,0,0,0,0-.76,3.67,3.67,0,0,0,1.16-1.57.72.72,0,0,0-.13-.6l-.05-.06a4.57,4.57,0,0,0,.28-1.78A1.41,1.41,0,0,0,24.06.16,1.65,1.65,0,0,0,23.31,0Z"/><path class="cls-4" d="M18.93,10.36,16.87,10s-.44-3.81-.16-4.35.58-.42.58-.42.33-2.44,1-2.85a.79.79,0,0,1,1.06,0S20.06.9,20.5,1a.5.5,0,0,1,.47.42c.7-.54,2.11-1.18,2.89-.81A5.26,5.26,0,0,0,20.32,3C19.15,5.19,19,7,20.45,7.5c1.13.38,2.25-.77,2.72-1.35a3.51,3.51,0,0,1-.57,1.12A13.53,13.53,0,0,1,18.93,10.36Z"/><path class="cls-5" d="M16.87,6.06a2.37,2.37,0,0,0-.25.85,3.48,3.48,0,0,1,.09-1.24c.28-.53.58-.42.58-.42s.33-2.44,1-2.85a.79.79,0,0,1,1.06,0S20.06.9,20.5,1a.5.5,0,0,1,.47.42c.7-.54,2.11-1.18,2.89-.81a1,1,0,0,1,.52.94,4.67,4.67,0,0,1-.39,2c.2,0,.34.1.3.35-.13.63-1.39,1.62-1.39,1.62s.42.08.27.7a3.51,3.51,0,0,1-.57,1.12,11.32,11.32,0,0,1-2.8,2.54c1.08-1,2.71-2.47,2.89-3.13.25-1-.28-1.07-.28-1.07s1.32-1.07,1.4-1.5-.46-.34-.46-.34a3.91,3.91,0,0,0,.49-2.48c-.33-1-2.94.42-2.94.42s-.21-.52-.58-.27a5.91,5.91,0,0,0-1,1.65A.7.7,0,0,0,18.39,3c-.51.38-.8,2.81-.8,2.81S17.24,5.36,16.87,6.06Z"/><path class="cls-3" d="M17.67,9.87a28.23,28.23,0,0,1,2.07-3.68A23,23,0,0,1,22.35,2.9,26.3,26.3,0,0,0,18.09,10h0a.23.23,0,0,1-.29.13.22.22,0,0,1-.12-.3Z"/><path class="cls-7" d="M13.38,20.9s-.31,0-.78-.07A6.19,6.19,0,0,1,9,19.36,3.36,3.36,0,0,1,8.17,17a4.32,4.32,0,0,0-.35-1.67,1,1,0,0,1,.15-1c.72-1,3.13-1.68,3.6-1.68h.11l.1.13c.07.13,1.48,2.38,2.41,3.85l0,.06-.68,4.22Z"/><path class="cls-8" d="M11.57,12.82h0C11.69,13,14,16.71,14,16.71l-.65,4s-.31,0-.77-.07a6.06,6.06,0,0,1-3.46-1.41c-1.23-1.36-.48-2.43-1.18-4a.78.78,0,0,1,.12-.85c.7-1,3.07-1.61,3.47-1.61m0-.35h0c-.5,0-3,.68-3.75,1.75a1.12,1.12,0,0,0-.15,1.22A4.13,4.13,0,0,1,8,17a3.47,3.47,0,0,0,.9,2.43A6.32,6.32,0,0,0,12.58,21c.47.06.78.07.8.07h.3l.05-.3.65-4,0-.13-.07-.11c-.91-1.45-2.3-3.68-2.39-3.85a.38.38,0,0,0-.37-.21Z"/><path class="cls-9" d="M11.24,20.09a7.68,7.68,0,0,1,1.38.56,6.06,6.06,0,0,1-3.46-1.41c-1.23-1.36-.48-2.43-1.18-4a.78.78,0,0,1,.12-.85L8.67,14a21,21,0,0,0,.12,3.41A2.9,2.9,0,0,0,11.24,20.09Z"/><path class="cls-10" d="M13.89,22.19a3.38,3.38,0,0,1-2.53-1.12,4.55,4.55,0,0,1-1.1-3.38A5.62,5.62,0,0,1,11,15.53a18.83,18.83,0,0,1,2.88-3.69l.1-.09,6.59,4a2.37,2.37,0,0,1,.81,1,2.55,2.55,0,0,1-.31,2.4c-.87,1.41-1.93,1.68-3.54,2.1-.65.17-1.39.36-2.26.66A4.19,4.19,0,0,1,13.89,22.19Z"/><path class="cls-8" d="M14,12l6.48,3.94a2.27,2.27,0,0,1,.74.94h0a2.4,2.4,0,0,1-.31,2.23c-1.16,1.89-2.64,1.63-5.71,2.69a4.19,4.19,0,0,1-1.34.23c-2.28,0-3.63-2.21-3.45-4.3a5.56,5.56,0,0,1,.73-2.1A18.67,18.67,0,0,1,14,12m0-.44-.19.19a18.13,18.13,0,0,0-2.91,3.72,5.84,5.84,0,0,0-.78,2.24,4.68,4.68,0,0,0,1.15,3.51,3.5,3.5,0,0,0,2.65,1.17,4.43,4.43,0,0,0,1.45-.25c.87-.3,1.61-.49,2.26-.66,1.65-.43,2.73-.71,3.63-2.18a2.7,2.7,0,0,0,.34-2.55l0,0h0a2.77,2.77,0,0,0-.85-1.05l-6.48-3.94L14,11.53Z"/><path class="cls-9" d="M21.25,16.86a2.4,2.4,0,0,1-.31,2.23c-1.16,1.89-2.64,1.63-5.71,2.69s-5-1.6-4.79-4.07a5.56,5.56,0,0,1,.73-2.1l.4-.16a4.47,4.47,0,0,0-.42,4.25c1,2.34,3.12,2.09,5,1.39s3.16-.55,4.26-2A3.72,3.72,0,0,0,21.25,16.86Z"/><path class="cls-11" d="M9.39,16.51a2.55,2.55,0,0,1-.73-.09c-1-.33-2.27-1.8-1.77-4.51A5.06,5.06,0,0,1,9,8.46l.18-.11,4.14,3.14L12.07,16l-.19.06A10.19,10.19,0,0,1,9.39,16.51Z"/><path class="cls-8" d="M9.17,8.56l3.95,3-1.19,4.31-.1,0h0a9.61,9.61,0,0,1-2.4.42,2.28,2.28,0,0,1-.67-.08c-1-.33-2.12-1.8-1.66-4.31a4.89,4.89,0,0,1,2-3.33l.08,0m0-.42L9,8.25l-.11.07a5.24,5.24,0,0,0-2.17,3.56c-.52,2.82.85,4.35,1.89,4.7a2.51,2.51,0,0,0,.78.1,10.37,10.37,0,0,0,2.5-.43L12,16.2l.18-.06,0-.17,1.19-4.32.06-.23-.19-.14-3.95-3L9.2,8.14Z"/><path class="cls-9" d="M10.85,16.07c.3,0,.62-.09.94-.16a6.88,6.88,0,0,1-3.07.34c-1-.33-2.12-1.8-1.66-4.31a4.89,4.89,0,0,1,2-3.33c-.62.79-2.07,3.2-1.62,5C8,15.85,9.2,16.23,10.85,16.07Z"/><path class="cls-12" d="M12.46,13.05a9.33,9.33,0,0,1-2.83-1.46,3.18,3.18,0,0,1-1.4-3.36,4.74,4.74,0,0,1,4.9-3.87h0A5,5,0,0,0,14.81,4a5.57,5.57,0,0,1,1.72-.37,2.76,2.76,0,0,1,1.64.55,3.91,3.91,0,0,1,1.62,2.21,4,4,0,0,1,0,2.29l0,.05-7.2,4.34Z"/><path class="cls-8" d="M16.53,3.8a2.61,2.61,0,0,1,1.54.52,3.72,3.72,0,0,1,1.55,2.11,3.76,3.76,0,0,1,0,2.18l-7.07,4.27a9.34,9.34,0,0,1-2.77-1.43A3,3,0,0,1,8.4,8.27a4.54,4.54,0,0,1,4.73-3.73h.07c1.15,0,2.19-.74,3.33-.74m0-.35h0a5.5,5.5,0,0,0-1.77.39,5.07,5.07,0,0,1-1.56.35h-.07a4.9,4.9,0,0,0-5.07,4,3.36,3.36,0,0,0,1.47,3.55,9.74,9.74,0,0,0,2.88,1.49l.15,0,.13-.08,7.07-4.27.11-.06,0-.11A4.12,4.12,0,0,0,18.28,4a3,3,0,0,0-1.75-.58Z"/><path class="cls-9" d="M19.62,6.43a3.7,3.7,0,0,0-.48-.79,3.24,3.24,0,0,0-2.63-1.5c-1.28,0-2.34,1.09-3.72.9S9.72,5.81,8.87,8a3.53,3.53,0,0,0,.87,3.5A3,3,0,0,1,8.4,8.27a4.55,4.55,0,0,1,4.78-3.73c1.64,0,3.07-1.51,4.89-.22A3.72,3.72,0,0,1,19.62,6.43Z"/><path class="cls-13" d="M20.24,17.71A4.64,4.64,0,0,1,19,17.53a3.84,3.84,0,0,1-.8-.31l-.06,0-2.25-6.87a9,9,0,0,1,.51-2.58,3,3,0,0,1,1.08-1.52A2.9,2.9,0,0,1,19,5.83a5.76,5.76,0,0,1,4.7,2.86A7,7,0,0,1,24.42,14a4.84,4.84,0,0,1-2,3.1A4.28,4.28,0,0,1,20.24,17.71Z"/><path class="cls-8" d="M19,6a5.6,5.6,0,0,1,4.55,2.79c1.74,2.73.83,7-1.24,8.19a4.2,4.2,0,0,1-2.07.55A4.66,4.66,0,0,1,19,17.36a4.7,4.7,0,0,1-.77-.29L16,10.26a9.55,9.55,0,0,1,.52-2.46,2.79,2.79,0,0,1,1-1.43A2.71,2.71,0,0,1,19,6m0-.35h0a3.14,3.14,0,0,0-1.64.42,3.16,3.16,0,0,0-1.15,1.61,10.17,10.17,0,0,0-.54,2.56v.07l0,.06,2.23,6.8,0,.14.12.06a4.2,4.2,0,0,0,.84.32,4.63,4.63,0,0,0,1.32.19,4.43,4.43,0,0,0,2.24-.6,5,5,0,0,0,2.11-3.21,7.19,7.19,0,0,0-.74-5.47A6,6,0,0,0,19,5.65Z"/><path class="cls-9" d="M23.55,8.79c1.74,2.73.83,7-1.24,8.19a4.22,4.22,0,0,1-3.29.38,8.91,8.91,0,0,1-.15-2.14c.09-.39.92-.41,1.35.26A2.71,2.71,0,0,1,20.55,17s1.48.53,2.93-1.88A6.1,6.1,0,0,0,21.24,7C18.29,5.47,17,7.85,17,7.85l-.46,0a2.79,2.79,0,0,1,1-1.43C18.89,5.53,21.82,6.06,23.55,8.79Z"/><ellipse class="cls-9" cx="22.63" cy="8.28" rx="0.44" ry="1" transform="translate(0.04 16.67) rotate(-40.48)"/><ellipse class="cls-9" cx="22.96" cy="9.67" rx="0.29" ry="0.46" transform="matrix(0.76, -0.65, 0.65, 0.76, -0.78, 17.22)"/><path class="cls-14" d="M15.36,19.62a3,3,0,0,1-2.68-1.93l0-.14.23-.14L19,13.79l.1.12.17.21c.37.51,1.53,2.29.55,3.9a3,3,0,0,1-3,1.49,5,5,0,0,0-.88,0A3.4,3.4,0,0,1,15.36,19.62Z"/><path class="cls-8" d="M19,14l.15.21c.43.57,1.45,2.22.56,3.7-1.11,1.83-2.57,1.25-3.74,1.46a3,3,0,0,1-.58.05,2.77,2.77,0,0,1-2.51-1.81l.11-.07L19,14m.07-.45-.25.15-6,3.54-.13.07-.23.15.09.26a3.1,3.1,0,0,0,2.84,2.05,4.72,4.72,0,0,0,.64-.05,5.71,5.71,0,0,1,.86-.06A3.14,3.14,0,0,0,20,18.11c1-1.71-.18-3.56-.58-4.09l-.17-.23L19,13.57Z"/><path class="cls-9" d="M19.12,14.23c.43.57,1.45,2.22.56,3.7-1.11,1.83-2.57,1.25-3.74,1.46a2.74,2.74,0,0,1-3.09-1.76l.11-.07.06,0a3.57,3.57,0,0,0,1.34,1.34,3.52,3.52,0,0,0,2.09.07,2.84,2.84,0,0,0,2.84-1.16c1.05-1.57-.53-3.52-.53-3.52Z"/><path class="cls-15" d="M11.21,13.59a5.37,5.37,0,0,1-.82-1.77,4.17,4.17,0,0,1,.26-3.06,4.83,4.83,0,0,1,4.23-2.55,3.82,3.82,0,0,1,2.28.72,2.91,2.91,0,0,1,1.27,1.91,2.61,2.61,0,0,1-.21,1.49l0,.06-6.9,3.32Z"/><path class="cls-8" d="M14.88,6.39a3.62,3.62,0,0,1,2.18.68,2.71,2.71,0,0,1,1.19,1.8,2.36,2.36,0,0,1-.19,1.38l-6.71,3.24a5.54,5.54,0,0,1-.79-1.72,4,4,0,0,1,.24-2.93,4.64,4.64,0,0,1,4.08-2.45m0-.35a5,5,0,0,0-4.39,2.64,4.37,4.37,0,0,0-.27,3.19,5.63,5.63,0,0,0,.85,1.83l.17.23.26-.13,6.72-3.23.1-.05.05-.11a2.69,2.69,0,0,0,.23-1.6,3.13,3.13,0,0,0-1.33-2A4.08,4.08,0,0,0,14.88,6Z"/><path class="cls-9" d="M18.25,8.87c-.44-.68-2.33-3.14-5.14-1.69a5.25,5.25,0,0,0-2.55,4.59,4,4,0,0,1,.24-2.93C12,6.53,15.13,5.66,17.06,7.07A2.71,2.71,0,0,1,18.25,8.87Z"/><path class="cls-16" d="M15.33,18.69c-1.88,0-4.76-1.61-5-4.13-.26-3.06,2.91-3.4,3-3.4h.08l.23.24,1.95,2.09L17,15c.07.15,1,2.44-.59,3.4A2.17,2.17,0,0,1,15.33,18.69Z"/><path class="cls-8" d="M13.33,11.33l.17.18,1.95,2.09,1.45,1.55s.93,2.24-.55,3.13a2.11,2.11,0,0,1-1,.23c-1.81,0-4.59-1.57-4.79-4-.24-2.92,2.79-3.21,2.79-3.21m.14-.36-.17,0a3.27,3.27,0,0,0-3.11,3.58c.22,2.62,3.19,4.29,5.14,4.29a2.42,2.42,0,0,0,1.2-.28c1.72-1,.74-3.46.7-3.57l0-.06,0,0-1.45-1.55-2-2.09-.17-.18L13.47,11Z"/><path class="cls-9" d="M16.9,15.15s.93,2.24-.55,3.13-5.57-.82-5.81-3.74,2.79-3.21,2.79-3.21l.17.18a4.82,4.82,0,0,0-2.22,1.35c-.92,1.22-.44,3,1.14,4.22s3.23,1.36,3.9.77a2.57,2.57,0,0,0,.53-1.93,2.21,2.21,0,0,1-2.33,0,3.31,3.31,0,0,1-1.38-2.37l2.31.09Z"/><path class="cls-17" d="M18.09,16a1.72,1.72,0,0,1-.58-.09,1,1,0,0,1-.7-.86,6.46,6.46,0,0,1,.05-1.49c0-.33.07-.68.09-1.05.06-1.44-1.6-2.26-1.61-2.27l-.11,0V10.1A2.17,2.17,0,0,1,17.56,8a2.68,2.68,0,0,1,.39,0,3.57,3.57,0,0,1,2.53,1.32A4.84,4.84,0,0,1,21.29,13,3.37,3.37,0,0,1,18.09,16Z"/><path class="cls-8" d="M17.56,8.2l.37,0c2.46.24,3.53,2.42,3.19,4.79a3.2,3.2,0,0,1-3,2.84,1.42,1.42,0,0,1-.52-.08.82.82,0,0,1-.58-.72,15.92,15.92,0,0,1,.13-2.5c.07-1.58-1.71-2.44-1.71-2.44h0a2,2,0,0,1,2.15-1.9m0-.35h0a2.33,2.33,0,0,0-2.5,2.24v.23l.21.11s1.57.78,1.51,2.11c0,.36-.05.71-.09,1a6.19,6.19,0,0,0,0,1.53,1.21,1.21,0,0,0,.81,1,1.83,1.83,0,0,0,.64.1,3.54,3.54,0,0,0,3.37-3.14,5,5,0,0,0-.84-3.79A3.75,3.75,0,0,0,18,7.87l-.4,0Z"/><path class="cls-9" d="M21.12,13a3.08,3.08,0,0,1-3.55,2.76.82.82,0,0,1-.58-.72,2,2,0,0,0,.52.36,2.6,2.6,0,0,0,3.2-2.4c.33-2.46-.93-4.09-2.9-4.39a2.07,2.07,0,0,0-2.4,1.48,2,2,0,0,1,2.52-1.88C20.39,8.46,21.46,10.64,21.12,13Z"/><path class="cls-18" d="M15.59,15.87a3.34,3.34,0,0,1-3.06-3.78c.07-1.65,1.91-2.53,3.21-2.53a2,2,0,0,1,.76.13,2.41,2.41,0,0,1,1.31,2l.06.57L17.61,12a2.62,2.62,0,0,1,.23.32,2.34,2.34,0,0,1,.38,1.81l0,.06h0a2.43,2.43,0,0,1-2.44,1.68Z"/><path class="cls-8" d="M15.73,9.73a1.83,1.83,0,0,1,.7.12,2.23,2.23,0,0,1,1.2,1.83,1.13,1.13,0,0,0,0,.12,2.8,2.8,0,0,0-1.57-.58,1.86,1.86,0,0,0-1.23.47A2.63,2.63,0,0,1,16,11.42a2,2,0,0,1,1.72,1A2.17,2.17,0,0,1,18,14.09s0,0,0,0a2.25,2.25,0,0,1-2.28,1.58H15.6a3.18,3.18,0,0,1-2.9-3.6c.07-1.53,1.8-2.37,3-2.37m0-.35h0c-1.36,0-3.29.94-3.38,2.7a3.52,3.52,0,0,0,3.23,4h.17a2.61,2.61,0,0,0,2.59-1.73l0,0,0-.13a2.51,2.51,0,0,0-.33-1.83L18,11.76v-.12a2.59,2.59,0,0,0-1.42-2.12,2.29,2.29,0,0,0-.83-.14Z"/><path class="cls-9" d="M17.63,11.67a2,2,0,0,0-1.44-1.55,3,3,0,0,0-3.05,1.38,2.93,2.93,0,0,0,.77,3.16,2.45,2.45,0,0,0,3.33.35,2.21,2.21,0,0,0,.79-.89A2.28,2.28,0,0,1,15.6,15.7a3.18,3.18,0,0,1-2.9-3.6c.09-1.86,2.61-2.69,3.73-2.25a2.23,2.23,0,0,1,1.2,1.83Z"/><path class="cls-19" d="M17.81,12.18a2.58,2.58,0,0,0-2.75-.58,1.29,1.29,0,0,0,.29,2.45c.89-.08,1.46-1.17.89-1.58s-1,.15-.77.56"/><ellipse class="cls-9" cx="10.42" cy="6.01" rx="1.05" ry="0.46" transform="translate(-1.41 8.2) rotate(-40.48)"/><ellipse class="cls-9" cx="11.59" cy="5.99" rx="0.38" ry="0.22" transform="translate(-1.11 8.96) rotate(-40.48)"/><ellipse class="cls-9" cx="13.74" cy="10.88" rx="0.58" ry="0.37" transform="translate(-3.78 11.52) rotate(-40.48)"/><ellipse class="cls-9" cx="14.61" cy="10.77" rx="0.26" ry="0.16" transform="translate(-3.49 12.06) rotate(-40.48)"/><ellipse class="cls-9" cx="7.61" cy="13.72" rx="0.45" ry="0.79" transform="translate(-2.81 2) rotate(-12.62)"/><ellipse class="cls-9" cx="8.45" cy="14.47" rx="0.22" ry="0.36" transform="translate(-2.96 2.2) rotate(-12.62)"/><path class="cls-20" d="M11.64,30a2.78,2.78,0,0,1-.83-.16,2.86,2.86,0,0,0-.87-.17H9.79a.68.68,0,0,1-.62-.34A4.13,4.13,0,0,1,9,26.83l.05-.09.12,0,2.71-.54H12l2.35,1.35-.06.14s-.08.18-.22.44a3.76,3.76,0,0,1-1.65,1.76A2,2,0,0,1,11.64,30Z"/><path class="cls-8" d="M11.92,26.35l2.16,1.24s-.08.18-.21.43a3.8,3.8,0,0,1-1.56,1.68,2,2,0,0,1-.67.13c-.58,0-1-.32-1.7-.32h-.2a.49.49,0,0,1-.42-.26,3.9,3.9,0,0,1-.15-2.36c.1,0,2.75-.55,2.75-.55M12,26l-.13,0-2.72.54-.18,0-.1.18A4.12,4.12,0,0,0,9,29.45a.82.82,0,0,0,.71.42h.2a2.66,2.66,0,0,1,.82.15,2.7,2.7,0,0,0,.88.17,2.15,2.15,0,0,0,.8-.16,4,4,0,0,0,1.74-1.84c.14-.26.22-.45.22-.45l.12-.28-.27-.16-2.16-1.24L12,26Z"/><path class="cls-9" d="M13.25,28.69a4,4,0,0,1,.62-.67,3.8,3.8,0,0,1-1.56,1.68c-1.05.41-1.5-.26-2.52-.19a.48.48,0,0,1-.47-.25l-.11-.41a13.24,13.24,0,0,0,2,.67A1.78,1.78,0,0,0,13.25,28.69Z"/><path class="cls-21" d="M12.89,29.07a2.9,2.9,0,0,1-1.26-.28,3.42,3.42,0,0,1-1.1-.92A11.14,11.14,0,0,1,9,25.4L9,25.28l3.77-2.94a1.63,1.63,0,0,1,.8-.26h0a1.64,1.64,0,0,1,1.35.73,3,3,0,0,1,.46,2.52,13.48,13.48,0,0,0-.11,1.44A2.27,2.27,0,0,1,12.89,29.07Z"/><path class="cls-8" d="M13.61,22.25a1.49,1.49,0,0,1,1.17.67c.82,1.07.36,1.86.3,3.85a2.09,2.09,0,0,1-2.19,2.13,2.72,2.72,0,0,1-1.18-.27,3.33,3.33,0,0,1-1-.87A11.42,11.42,0,0,1,9.2,25.33l3.65-2.85a1.41,1.41,0,0,1,.71-.22h0m0-.35h-.12a1.85,1.85,0,0,0-.84.28L9,25.06l-.21.16.11.25A11.29,11.29,0,0,0,10.4,28a3.8,3.8,0,0,0,1.16,1,3.19,3.19,0,0,0,1.33.3,2.43,2.43,0,0,0,2.54-2.47c0-.56.07-1,.11-1.43a3.16,3.16,0,0,0-.49-2.65,1.81,1.81,0,0,0-1.44-.8Z"/><path class="cls-9" d="M13.56,22.25a1.48,1.48,0,0,1,1.22.67c.82,1.07.36,1.86.3,3.85a2.23,2.23,0,0,1-3.37,1.86,3.33,3.33,0,0,1-1-.87V27.5A2.74,2.74,0,0,0,13,28.65c1.56-.06,1.88-1.33,1.89-2.58s.38-1.93-.21-2.87A2.29,2.29,0,0,0,13.56,22.25Z"/><path class="cls-22" d="M9.25,30a3.26,3.26,0,0,1-1.67-.51,3.2,3.2,0,0,1-1.55-2l0-.12.09-.12,2.68-1.68,2.38,1.74v.2a4.23,4.23,0,0,1-.51,1.92A1.77,1.77,0,0,1,9.25,30Z"/><path class="cls-8" d="M8.77,25.76,11,27.38v.09a4.24,4.24,0,0,1-.47,1.83,1.6,1.6,0,0,1-1.25.51,3.14,3.14,0,0,1-1.58-.49A3.05,3.05,0,0,1,6.2,27.43a.18.18,0,0,1,0-.05l2.58-1.62m0-.42-.2.13L6,27.08l-.2.12,0,.23,0,.08a3.41,3.41,0,0,0,1.63,2.11,3.52,3.52,0,0,0,1.76.54,1.94,1.94,0,0,0,1.52-.64,4.25,4.25,0,0,0,.55-2v-.29l-.15-.11L9,25.48l-.19-.14Z"/><path class="cls-9" d="M10.86,28a4.8,4.8,0,0,0,.11-.57,4.24,4.24,0,0,1-.47,1.83c-.4.5-1.49.82-2.83,0A3.05,3.05,0,0,1,6.2,27.43a4.41,4.41,0,0,0,2.52,2A1.67,1.67,0,0,0,10.86,28Z"/><path class="cls-23" d="M6.78,28.23a1.72,1.72,0,0,1-1-.33,3,3,0,0,1-1.17-3.75,3.22,3.22,0,0,0,.15-1,2.1,2.1,0,0,1,.85-1.94A2.59,2.59,0,0,1,7,20.74h.23a2.47,2.47,0,0,1,1.33.54l.05,0,.94,5.11-.05.07a6,6,0,0,1-1.47,1.32A2.54,2.54,0,0,1,6.78,28.23Z"/><path class="cls-8" d="M7,20.92h.21a2.31,2.31,0,0,1,1.24.49l.91,5A5.74,5.74,0,0,1,8,27.68a2.41,2.41,0,0,1-1.19.37,1.56,1.56,0,0,1-.92-.29,2.79,2.79,0,0,1-1.1-3.55c.36-.94-.2-2.09.93-2.85A2.35,2.35,0,0,1,7,20.92m0-.35H7a2.66,2.66,0,0,0-1.53.5,2.3,2.3,0,0,0-.94,2.08,2.72,2.72,0,0,1-.13.93,3.14,3.14,0,0,0,1.23,4,1.91,1.91,0,0,0,1.12.36A2.68,2.68,0,0,0,8.15,28a6,6,0,0,0,1.52-1.37l.09-.12,0-.15-.92-5,0-.12-.09-.08a2.67,2.67,0,0,0-1.44-.58Z"/><path class="cls-9" d="M7.24,20.93a2.05,2.05,0,0,0-.56.1,2,2,0,0,0-1.43,1.18C5,23,5.37,23.79,5,24.54a2.44,2.44,0,0,0,.82,2.88A2.17,2.17,0,0,0,8,27.68a1.87,1.87,0,0,1-2.11.08,2.79,2.79,0,0,1-1.1-3.55c.36-.94-.2-2.09.93-2.85A2.26,2.26,0,0,1,7.24,20.93Z"/><path class="cls-24" d="M8.64,24a5.37,5.37,0,0,1-1.4-.87,1.87,1.87,0,0,1-.66-1c-.2-1,.77-2.7,2.82-3.13a3.38,3.38,0,0,1,.72-.07c1.79,0,3.7,1.31,3.92,2.7a2.92,2.92,0,0,1-.89,2.51l-.05,0Z"/><path class="cls-8" d="M10.12,19.11c1.75,0,3.54,1.28,3.74,2.56a2.55,2.55,0,0,1-.49,2A2.71,2.71,0,0,1,13,24l-4.38-.2A5.78,5.78,0,0,1,7.35,23a1.77,1.77,0,0,1-.6-.89c-.19-1,.75-2.51,2.69-2.92a3.82,3.82,0,0,1,.68-.07m0-.35h0a3.67,3.67,0,0,0-.75.08c-2,.43-3.21,2.1-3,3.33a2,2,0,0,0,.71,1.08,6.59,6.59,0,0,0,1.39.89l.06,0h.07l4.38.2h.14l.1-.09a3.43,3.43,0,0,0,.39-.43,2.94,2.94,0,0,0,.56-2.23c-.24-1.5-2.19-2.86-4.09-2.86Z"/><path class="cls-9" d="M9.44,19.18c1.94-.4,4.19,1.05,4.42,2.49a2.55,2.55,0,0,1-.49,2,5.37,5.37,0,0,1-1.26-.38c-.2-.13,0-.61.44-.71a1.6,1.6,0,0,1,.95.14s.62-.74-.45-2.09a3.73,3.73,0,0,0-5.12-.47,1.8,1.8,0,0,0-.45,2.61L7.35,23a1.77,1.77,0,0,1-.6-.89C6.56,21.15,7.5,19.59,9.44,19.18Z"/><ellipse class="cls-9" cx="8.95" cy="19.6" rx="0.61" ry="0.27" transform="translate(-6.1 4.18) rotate(-19.77)"/><ellipse class="cls-9" cx="9.82" cy="19.71" rx="0.28" ry="0.18" transform="translate(-6.09 4.48) rotate(-19.77)"/><path class="cls-25" d="M12,27.4l0-.13-.76-4.44.13,0,.17-.05a3.23,3.23,0,0,1,.89-.13,1.88,1.88,0,0,1,1.75,2.77,3.28,3.28,0,0,0-.15.51,1.84,1.84,0,0,1-1.84,1.53Z"/><path class="cls-8" d="M12.44,22.78a1.71,1.71,0,0,1,1.4.61c.81,1,.16,1.74,0,2.46a1.66,1.66,0,0,1-1.66,1.38h0l0-.08L11.44,23l.16-.05a3.14,3.14,0,0,1,.84-.12m0-.35h0a3.61,3.61,0,0,0-.94.13l-.18.06-.27.1,0,.29.73,4.2v.09l.06.28h.28a2,2,0,0,0,2-1.67,3.72,3.72,0,0,1,.15-.48,2.08,2.08,0,0,0-.25-2.26,2,2,0,0,0-1.67-.74Z"/><path class="cls-9" d="M11.6,22.9a2.11,2.11,0,0,1,2.24.49c.81,1,.16,1.74,0,2.46a1.66,1.66,0,0,1-1.67,1.38l0-.08,0,0a2.21,2.21,0,0,0,1.06-.48,2.16,2.16,0,0,0,.49-1.18,1.74,1.74,0,0,0,0-1.88c-.68-.94-2.14-.46-2.14-.46Z"/><path class="cls-26" d="M8.68,27.47l-.36,0a2.61,2.61,0,0,1-1.74-.83,3,3,0,0,1-.72-2.38A2.52,2.52,0,0,1,7,22.39,2,2,0,0,1,8,22a1.24,1.24,0,0,1,.33,0,1.69,1.69,0,0,1,.85.46l0,0,.41,4.76-.13,0A3.86,3.86,0,0,1,8.68,27.47Z"/><path class="cls-8" d="M8,22.21a1.46,1.46,0,0,1,1.05.44l.4,4.55a3.49,3.49,0,0,1-.81.09H8.34a2.44,2.44,0,0,1-1.63-.78,2.71,2.71,0,0,1,.34-4,1.79,1.79,0,0,1,1-.32m0-.35H8a2.22,2.22,0,0,0-1.19.38,2.75,2.75,0,0,0-1.17,2,3.17,3.17,0,0,0,.77,2.52,2.78,2.78,0,0,0,1.86.88,2.3,2.3,0,0,0,.37,0,3.25,3.25,0,0,0,.9-.11l.28-.08,0-.28-.4-4.55V22.5l-.08-.09a1.87,1.87,0,0,0-.94-.51,1.55,1.55,0,0,0-.37,0Z"/><path class="cls-9" d="M8.34,22.24a2.41,2.41,0,0,0-2.08,2.58,3.22,3.22,0,0,0,2.08,2.46,2.44,2.44,0,0,1-1.63-.78,2.71,2.71,0,0,1,.34-4A1.64,1.64,0,0,1,8.34,22.24Z"/><path class="cls-27" d="M10.48,28.14a2.1,2.1,0,0,1-.61-.09,2,2,0,0,1-1.35-2.5l0-.09,3-1.25h.09c.46,0,1.64.12,1.83,1.13a2.12,2.12,0,0,1-.6,1.55A3.38,3.38,0,0,1,10.48,28.14Z"/><path class="cls-8" d="M11.67,24.37c.2,0,1.47,0,1.64,1S12,28,10.48,28a2.16,2.16,0,0,1-.56-.08,1.84,1.84,0,0,1-1.24-2.3l.14-.06,1.62-.66,1.2-.5h0m0-.35h-.1l-.06,0-1.2.5-1.62.66-.14.06-.16.07,0,.16a2.12,2.12,0,0,0,1.47,2.72,2.45,2.45,0,0,0,.66.1A3.51,3.51,0,0,0,13,27a2.2,2.2,0,0,0,.64-1.69,1.85,1.85,0,0,0-2-1.29Z"/><path class="cls-9" d="M11.64,24.37s1.49,0,1.67,1-1.67,3-3.39,2.52a1.84,1.84,0,0,1-1.24-2.3l.14-.06a2.87,2.87,0,0,0,.29,1.57c.5.79,1.6.89,2.67.26s1.48-1.56,1.28-2.07-1-.72-1-.72a1.35,1.35,0,0,1-.53,1.32,2,2,0,0,1-1.66.28s.26-.63.55-1.3Z"/><path class="cls-28" d="M11.74,24.49h-.17a3.61,3.61,0,0,1-.86-.36c-.18-.09-.37-.19-.58-.28a1.16,1.16,0,0,0-.42-.08,1.93,1.93,0,0,0-1.15.5l-.09.09-.11-.06a1.47,1.47,0,0,1-.76-.79,1.63,1.63,0,0,1,.14-1.29A2.21,2.21,0,0,1,9.82,20.9a3.29,3.29,0,0,1,1.59.44,2.2,2.2,0,0,1,1.14,1.54,1.71,1.71,0,0,1-.27,1.36A.66.66,0,0,1,11.74,24.49Z"/><path class="cls-8" d="M9.82,21.07a3.19,3.19,0,0,1,1.51.42,1.89,1.89,0,0,1,.82,2.64.53.53,0,0,1-.41.19l-.14,0a8.8,8.8,0,0,1-1.4-.62,1.23,1.23,0,0,0-.49-.1,2.07,2.07,0,0,0-1.27.56h0a1.24,1.24,0,0,1-.53-1.85,2.06,2.06,0,0,1,1.92-1.21m0-.35h0a2.44,2.44,0,0,0-2.24,1.41,1.84,1.84,0,0,0-.15,1.43,1.65,1.65,0,0,0,.86.89l.21.1.18-.16a1.77,1.77,0,0,1,1-.46.85.85,0,0,1,.35.08,5.07,5.07,0,0,1,.57.27,4,4,0,0,0,.91.37l.2,0a.85.85,0,0,0,.67-.32,1.88,1.88,0,0,0,.31-1.5,2.35,2.35,0,0,0-1.22-1.66,3.45,3.45,0,0,0-1.68-.47Z"/><path class="cls-9" d="M11.33,21.49a1.89,1.89,0,0,1,.82,2.64.54.54,0,0,1-.55.17,1,1,0,0,0,.32-.22,1.58,1.58,0,0,0-.68-2.35,2.17,2.17,0,0,0-3.14.71,1.25,1.25,0,0,0,.33,1.69,1.24,1.24,0,0,1-.53-1.85C8.57,20.92,10.05,20.79,11.33,21.49Z"/><path class="cls-29" d="M10,26.51a2.66,2.66,0,0,1-1.06-.23A1.54,1.54,0,0,1,8,25.13a2.11,2.11,0,0,1,.34-1.75,1.26,1.26,0,0,1,1-.4,2.59,2.59,0,0,1,.47.05l.44.1h0a1.63,1.63,0,0,1,.31,0,1.43,1.43,0,0,1,.79.23l.06,0h0a1.59,1.59,0,0,1,.4,1.92A2,2,0,0,1,10,26.51Z"/><path class="cls-8" d="M9.38,23.15a2,2,0,0,1,.43.05l.08,0a1.36,1.36,0,0,0-.67,1.58,1.33,1.33,0,0,1,1-1.48,2,2,0,0,1,.34,0,1.27,1.27,0,0,1,.7.2h0a1.39,1.39,0,0,1,.37,1.74A1.76,1.76,0,0,1,10,26.33a2.48,2.48,0,0,1-1-.21c-1-.45-1-2.08-.49-2.63a1.16,1.16,0,0,1,.88-.34m0-.35h0a1.47,1.47,0,0,0-1.13.46,2.28,2.28,0,0,0-.39,1.9,1.76,1.76,0,0,0,1,1.28,2.8,2.8,0,0,0,1.13.24,2.15,2.15,0,0,0,2-1.3,1.75,1.75,0,0,0-.41-2.09v0l-.14-.08a1.63,1.63,0,0,0-.85-.23,1.67,1.67,0,0,0-.31,0L10,22.88l-.07,0a2.32,2.32,0,0,0-.52-.06Z"/><path class="cls-9" d="M9.81,23.2a1.21,1.21,0,0,0-1.2.5,1.79,1.79,0,0,0,.13,2,1.8,1.8,0,0,0,2,.25,1.51,1.51,0,0,0,.92-1.84,1.35,1.35,0,0,0-.34-.65,1.39,1.39,0,0,1,.37,1.74A1.94,1.94,0,0,1,9,26.12c-1-.45-1-2.08-.49-2.63a1.39,1.39,0,0,1,1.31-.29Z"/><path class="cls-19" d="M10.14,23.21a1.59,1.59,0,0,0-.93,1.45.79.79,0,0,0,1.47.37c.14-.53-.36-1.1-.72-.86s-.12.6.16.56"/><ellipse class="cls-9" cx="5" cy="26.11" rx="0.28" ry="0.64" transform="translate(-8.54 3.23) rotate(-19.77)"/><ellipse class="cls-9" cx="5.24" cy="25.43" rx="0.14" ry="0.24" transform="translate(-8.29 3.27) rotate(-19.77)"/><ellipse class="cls-9" cx="8.51" cy="25.26" rx="0.23" ry="0.36" transform="translate(-8.04 4.37) rotate(-19.77)"/><ellipse class="cls-9" cx="8.63" cy="24.74" rx="0.1" ry="0.16" transform="translate(-7.86 4.38) rotate(-19.77)"/><ellipse class="cls-9" cx="8.81" cy="29.39" rx="0.27" ry="0.48" transform="translate(-21.52 33.98) rotate(-81.92)"/><ellipse class="cls-9" cx="9.43" cy="29.07" rx="0.13" ry="0.22" transform="translate(-20.68 34.31) rotate(-81.92)"/><path class="cls-30" d="M3.05,20a.23.23,0,0,1-.23-.2c-.22-1.77-.63-2.17-2.4-2.4a.23.23,0,0,1-.2-.22A.23.23,0,0,1,.42,17c1.77-.22,2.18-.63,2.4-2.4a.23.23,0,0,1,.23-.2.23.23,0,0,1,.22.2c.23,1.77.63,2.18,2.4,2.4a.23.23,0,0,1,.2.23.23.23,0,0,1-.2.22c-1.77.23-2.17.63-2.4,2.4A.23.23,0,0,1,3.05,20Z"/><path class="cls-9" d="M3.05,14.47a.13.13,0,0,1,.12.11c.23,1.83.67,2.26,2.49,2.49a.13.13,0,0,1,0,.25c-1.82.23-2.26.67-2.49,2.49a.13.13,0,0,1-.12.11.13.13,0,0,1-.13-.11C2.69,18,2.26,17.55.43,17.32a.13.13,0,0,1,0-.25c1.83-.23,2.26-.66,2.49-2.49a.13.13,0,0,1,.13-.11m0-.2a.33.33,0,0,0-.33.28c-.22,1.73-.59,2.1-2.32,2.32a.33.33,0,0,0,0,.65c1.73.22,2.1.59,2.32,2.32a.33.33,0,0,0,.65,0c.22-1.73.59-2.1,2.32-2.32a.33.33,0,0,0,0-.65c-1.73-.22-2.1-.59-2.32-2.32a.32.32,0,0,0-.32-.28Z"/><path class="cls-31" d="M5.27,17.23c-1.78.17-2,.41-2.19,2.19,0,0-.07,0-.07,0-.17-1.78-.41-2-2.19-2.19,0,0,0-.07,0-.07C2.6,17,2.84,16.75,3,15c0,0,.07,0,.07,0,.17,1.78.41,2,2.19,2.19C5.31,17.16,5.31,17.23,5.27,17.23Z"/><path class="cls-32" d="M11.34,36.47a1.12,1.12,0,0,1-1-.71,1.11,1.11,0,0,1-2.14-.4,1.14,1.14,0,0,1,1.08-1.11,1.13,1.13,0,0,1-.05-.32,1.11,1.11,0,1,1,2.22,0,1.14,1.14,0,0,1-.05.33,1.07,1.07,0,0,1,1,.64,1,1,0,0,1,.11.46A1.11,1.11,0,0,1,11.34,36.47Z"/><path class="cls-3" d="M10.31,32.9a1,1,0,0,1,1,1,.91.91,0,0,1-.09.41h.09a1,1,0,0,1,.93.6.91.91,0,0,1,.1.43,1,1,0,0,1-2.06,0,1,1,0,0,1-2.06,0,1,1,0,0,1,.17-.56h0a1,1,0,0,1,.86-.46h.09a.91.91,0,0,1-.09-.41,1,1,0,0,1,1-1m0-.16a1.19,1.19,0,0,0-1.18,1.19,2,2,0,0,0,0,.25,1.17,1.17,0,0,0-.86.53l0,0a1.2,1.2,0,0,0-.17.62,1.18,1.18,0,0,0,2.21.58,1.19,1.19,0,0,0,2.22-.58,1,1,0,0,0-.12-.5,1.14,1.14,0,0,0-.94-.68,1,1,0,0,0,0-.25,1.19,1.19,0,0,0-1.19-1.19Z"/><path class="cls-33" d="M12.37,35.36a1,1,0,0,1-2.06,0,1,1,0,0,1-2.06,0,1,1,0,0,1,.17-.56A.93.93,0,0,0,9.07,36a1.23,1.23,0,0,0,1.24-.66s.26,1.17,1.53.54a1,1,0,0,0,.43-1A.91.91,0,0,1,12.37,35.36Z"/><g class="cls-34"><path class="cls-35" d="M10.31,33a.93.93,0,0,1,.93.93.68.68,0,0,1-.08.36.11.11,0,0,0,0,.1.09.09,0,0,0,.08,0h.09a.91.91,0,0,1,.84.55.76.76,0,0,1,.09.38.93.93,0,0,1-1.86,0,.09.09,0,0,0-.1-.1h0a.1.1,0,0,0-.1.1.93.93,0,0,1-1.86,0,.84.84,0,0,1,.15-.5l0,0a.89.89,0,0,1,.77-.4h.08a.11.11,0,0,0,.09,0,.09.09,0,0,0,0-.1.8.8,0,0,1-.08-.36.93.93,0,0,1,.93-.93M8.52,34.79h0m1.79-1.89a1,1,0,0,0-1,1,.91.91,0,0,0,.09.41H9.28a1,1,0,0,0-.86.46h0a1,1,0,0,0-.17.56,1,1,0,0,0,2.06,0,1,1,0,0,0,2.06,0,.91.91,0,0,0-.1-.43,1,1,0,0,0-.93-.6h-.09a.91.91,0,0,0,.09-.41,1,1,0,0,0-1-1Z"/></g><path class="cls-36" d="M10.31,32.06a.7.7,0,0,1-.6-.33.71.71,0,0,1-.12-.39.72.72,0,0,1,.72-.72.69.69,0,0,1,.34.09.71.71,0,0,1,.38.63A.72.72,0,0,1,10.31,32.06Z"/><path class="cls-3" d="M10.31,30.7a.61.61,0,0,1,.3.08.64.64,0,0,1-.3,1.2.65.65,0,0,1-.54-.29.68.68,0,0,1-.1-.35.64.64,0,0,1,.64-.64m0-.16a.79.79,0,0,0-.79.8.82.82,0,0,0,.12.43.8.8,0,0,0,1.47-.43.82.82,0,0,0-.8-.8Z"/><path class="cls-33" d="M10.79,31.35a.47.47,0,0,1-.46.47.48.48,0,0,1-.4-.21l.07,0a1,1,0,0,0,.55-.63A.46.46,0,0,1,10.79,31.35Z"/><g class="cls-34"><path class="cls-35" d="M10.31,30.8a.51.51,0,0,1,.26.07.52.52,0,0,1,.28.47.54.54,0,0,1-1,.3.58.58,0,0,1-.09-.3.55.55,0,0,1,.54-.54m0-.1a.64.64,0,0,0-.64.64.68.68,0,0,0,.1.35.65.65,0,0,0,.54.29.64.64,0,0,0,.3-1.2.61.61,0,0,0-.3-.08Z"/></g><path class="cls-37" d="M10.29,44.87a1.21,1.21,0,0,1-1.09-.76A2.16,2.16,0,0,1,9,43.37c-.16-1.5,1.17-6.14,1.23-6.33a.08.08,0,0,1,.07,0h0s.06,0,.07.07,1.39,4.8,1.23,6.31-1.18,1.5-1.29,1.5l0-.07Z"/><path class="cls-3" d="M10.31,37.06a.28.28,0,0,0,0,.06c.16.54,1.37,4.84,1.22,6.24s-1.07,1.44-1.21,1.44h0a1.14,1.14,0,0,1-1-.72,2.08,2.08,0,0,1-.19-.72c-.16-1.5,1.23-6.3,1.23-6.3m0-.14a.15.15,0,0,0-.14.1c-.06.2-1.4,4.84-1.24,6.35a2.23,2.23,0,0,0,.21.78,1.29,1.29,0,0,0,1.15.8c.16,0,1.24-.05,1.4-1.58s-1.21-6.25-1.23-6.29a.15.15,0,0,0-.13-.16Z"/><path class="cls-33" d="M11.54,43.36c-.16,1.5-1.23,1.44-1.23,1.44a1.14,1.14,0,0,1-1-.72c.33.14,1.22.38,1.46-1a26.26,26.26,0,0,0-.41-6C10.48,37.66,11.69,42,11.54,43.36Z"/><g class="cls-34"><path class="cls-35" d="M10.31,37.44c.37,1.3,1.26,4.73,1.13,5.91s-.95,1.35-1.11,1.35h0A1,1,0,0,1,9.36,44a2,2,0,0,1-.18-.68c-.13-1.23.82-4.78,1.13-5.91m0-.38s-1.39,4.8-1.23,6.3a2.08,2.08,0,0,0,.19.72,1.14,1.14,0,0,0,1,.72h0c.14,0,1.06,0,1.21-1.44s-1.06-5.7-1.22-6.24a.28.28,0,0,1,0-.06Z"/></g><ellipse class="cls-38" cx="9.41" cy="43.11" rx="0.37" ry="0.68"/><ellipse class="cls-38" cx="10.07" cy="42.61" rx="0.18" ry="0.32"/></g></g></g></svg>