<svg xmlns="http://www.w3.org/2000/svg" xmlns:xlink="http://www.w3.org/1999/xlink" viewBox="0 0 14.95 14.79"><defs><style>.cls-1{fill:url(#radial-gradient);}.cls-2{fill:#385e8f;}.cls-3{fill:#fff;}.cls-4{fill:url(#radial-gradient-2);}.cls-5{fill:url(#radial-gradient-3);}.cls-6{fill:url(#radial-gradient-4);}.cls-7{fill:url(#radial-gradient-5);}.cls-8{fill:url(#radial-gradient-6);}.cls-9{fill:url(#radial-gradient-7);}.cls-10{fill:url(#radial-gradient-8);}.cls-11{fill:url(#radial-gradient-9);}.cls-12{fill:url(#radial-gradient-10);}.cls-13{fill:none;stroke:#385e8f;stroke-miterlimit:10;stroke-width:0.35px;}</style><radialGradient id="radial-gradient" cx="-0.54" cy="3.1" r="10.68" gradientUnits="userSpaceOnUse"><stop offset="0.12" stop-color="#e8f9ff"/><stop offset="0.14" stop-color="#e4f8ff"/><stop offset="0.25" stop-color="#caf2ff"/><stop offset="0.35" stop-color="#baeeff"/><stop offset="0.42" stop-color="#b5edff"/><stop offset="0.54" stop-color="#d4f3ff"/><stop offset="0.66" stop-color="#c0efff"/><stop offset="0.8" stop-color="#b0ebff"/><stop offset="0.9" stop-color="#abeaff"/></radialGradient><radialGradient id="radial-gradient-2" cx="1.05" cy="10.33" r="10.4" xlink:href="#radial-gradient"/><radialGradient id="radial-gradient-3" cx="3.14" cy="-2.69" r="12.41" xlink:href="#radial-gradient"/><radialGradient id="radial-gradient-4" cx="13.15" cy="1" r="8" xlink:href="#radial-gradient"/><radialGradient id="radial-gradient-5" cx="12.2" cy="12.32" r="9.35" xlink:href="#radial-gradient"/><radialGradient id="radial-gradient-6" cx="2.76" cy="12.16" r="11.66" xlink:href="#radial-gradient"/><radialGradient id="radial-gradient-7" cx="10.21" cy="2.78" r="9.15" xlink:href="#radial-gradient"/><radialGradient id="radial-gradient-8" cx="3.51" cy="6.19" r="9.81" xlink:href="#radial-gradient"/><radialGradient id="radial-gradient-9" cx="10.54" cy="9.54" r="10.37" xlink:href="#radial-gradient"/><radialGradient id="radial-gradient-10" cx="7.57" cy="6.48" r="10.26" xlink:href="#radial-gradient"/></defs><g id="Layer_2" data-name="Layer 2"><g id="Layer_1-2" data-name="Layer 1"><path class="cls-1" d="M2,11.48A6.22,6.22,0,0,1,1.6,11,4.85,4.85,0,0,1,.18,8.25,2.72,2.72,0,0,1,.87,6.37a3.38,3.38,0,0,0,.65-1.19.8.8,0,0,1,.65-.58,1.64,1.64,0,0,1,.4,0,5.64,5.64,0,0,1,2.75,1l0,.07,0,.1c0,.13-.34,2.22-.54,3.59v.07L2.15,11.58Z"/><path class="cls-2" d="M2.57,4.73a5.48,5.48,0,0,1,2.61.9c0,.12-.55,3.62-.55,3.62l-2.47,2.1a6,6,0,0,1-.43-.44A4.88,4.88,0,0,1,.35,8.25c0-1.47,1-1.73,1.34-3a.62.62,0,0,1,.52-.46,1.37,1.37,0,0,1,.36,0m0-.35h0a2,2,0,0,0-.44,0,1,1,0,0,0-.78.71A3.24,3.24,0,0,1,.73,6.27a2.84,2.84,0,0,0-.73,2,5.06,5.06,0,0,0,1.47,2.88c.26.29.45.47.45.47l.23.21.23-.2L4.86,9.51,5,9.43,5,9.3c.19-1.3.5-3.42.54-3.59l0-.15-.09-.15a5.71,5.71,0,0,0-2.89-1Z"/><path class="cls-3" d="M1.18,9.85a5.69,5.69,0,0,1,.55,1.06A4.88,4.88,0,0,1,.35,8.25c0-1.47,1-1.73,1.34-3a.62.62,0,0,1,.52-.46l.56,0A17.09,17.09,0,0,0,1.06,7,2.33,2.33,0,0,0,1.18,9.85Z"/><path class="cls-4" d="M6.65,14.62a5.18,5.18,0,0,1-2.26-.73c-.49-.24-1-.51-1.73-.78A2.91,2.91,0,0,1,.76,11a3.55,3.55,0,0,1,1-3.13,4.63,4.63,0,0,1,1.6-.94,15.15,15.15,0,0,1,3.68-.75h.14l1.93,5.89a1.91,1.91,0,0,1,0,1.07,2.06,2.06,0,0,1-1.47,1.31A3.07,3.07,0,0,1,6.65,14.62Z"/><path class="cls-2" d="M7.09,6.35,9,12.11a1.77,1.77,0,0,1,0,1H9a1.9,1.9,0,0,1-1.35,1.2,3.15,3.15,0,0,1-.95.16c-1.12,0-2-.73-3.92-1.49C.31,12,.51,9.37,1.93,8a4.38,4.38,0,0,1,1.53-.89,14.84,14.84,0,0,1,3.63-.74M7.34,6,7.07,6a15.33,15.33,0,0,0-3.73.76,4.63,4.63,0,0,0-1.66,1A3.74,3.74,0,0,0,.59,11a3.08,3.08,0,0,0,2,2.25c.68.26,1.23.53,1.71.76a5.33,5.33,0,0,0,2.34.75,3.47,3.47,0,0,0,1.06-.18,2.22,2.22,0,0,0,1.57-1.42l0-.06h0a2.07,2.07,0,0,0,0-1.12L7.42,6.24,7.34,6Z"/><path class="cls-3" d="M9,13.08a1.9,1.9,0,0,1-1.35,1.2c-1.69.54-2.45-.38-4.87-1.33S.51,9.37,1.93,8a4.38,4.38,0,0,1,1.53-.89l.32.11A3.55,3.55,0,0,0,1.33,9.56c-.61,1.95.8,2.9,2.34,3.47s2.21,1.31,3.62,1A2.88,2.88,0,0,0,9,13.08Z"/><path class="cls-5" d="M3.64,7.77A5.7,5.7,0,0,1,1.49,6.29C1.05,5.57,1,4,2.76,2.58a4.33,4.33,0,0,1,2.7-1,3,3,0,0,1,.4,0l.12,0,.1.12.87,4L3.81,7.84Z"/><path class="cls-2" d="M5.46,1.72l.37,0h.08l.84,3.88-3,2-.08,0,0,0a5.54,5.54,0,0,1-2-1.39C1.2,5.48,1.28,4,2.87,2.71a4.11,4.11,0,0,1,2.59-1m0-.35h0A4.5,4.5,0,0,0,2.65,2.44C.83,3.92.87,5.61,1.34,6.38a5.47,5.47,0,0,0,2.2,1.53l.12,0L3.83,8,4,7.93l3-2,.2-.13L7.1,5.56,6.25,1.68l0-.22L6,1.41l-.11,0-.41,0Z"/><path class="cls-3" d="M3,7.2c.2.13.42.27.65.39a5.54,5.54,0,0,1-2-1.39C1.2,5.48,1.28,4,2.87,2.71a3.91,3.91,0,0,1,3-1C5,1.9,2.91,2.61,2.24,4,1.42,5.59,1.94,6.44,3,7.2Z"/><path class="cls-6" d="M5.59,6.28l0-.07a7.59,7.59,0,0,1-1-2.36A2.59,2.59,0,0,1,5.49,1,4.16,4.16,0,0,1,7.91.17a4.12,4.12,0,0,1,2.64,1.08,4.11,4.11,0,0,0,1.17.63,2.66,2.66,0,0,1,2,1.87,3.17,3.17,0,0,1-1.4,3.6l-.05,0Z"/><path class="cls-2" d="M7.91.35a3.91,3.91,0,0,1,2.53,1c1,.86,2.65.68,3.09,2.41a3,3,0,0,1-.15,2.09A3.1,3.1,0,0,1,12.22,7.2L5.69,6.12a7.61,7.61,0,0,1-.94-2.31,2.43,2.43,0,0,1,.84-2.64A4,4,0,0,1,7.91.35m0-.35h0A4.35,4.35,0,0,0,5.38.89a2.76,2.76,0,0,0-1,3,7.93,7.93,0,0,0,1,2.43l.08.13.16,0,6.52,1.08.12,0,.11-.06A3.41,3.41,0,0,0,13.7,6a3.32,3.32,0,0,0,.17-2.32,2.87,2.87,0,0,0-2.08-2,3.51,3.51,0,0,1-1.12-.59A4.29,4.29,0,0,0,7.91,0Z"/><path class="cls-3" d="M13.38,5.89a2.65,2.65,0,0,0,.11-.74,2.56,2.56,0,0,0-.81-2.27c-.79-.67-2-.56-2.74-1.39S7.67.36,6,1.23A2.83,2.83,0,0,0,4.75,3.81a2.43,2.43,0,0,1,.84-2.64,3.64,3.64,0,0,1,4.85.22c1,.86,2.65.68,3.09,2.41A3,3,0,0,1,13.38,5.89Z"/><path class="cls-7" d="M10,13.92a2.32,2.32,0,0,1-.46,0,3.54,3.54,0,0,1-2.31-1.55,4.63,4.63,0,0,1-.34-.62l0-.06L9,6.28A7.54,7.54,0,0,1,10.7,5,2.76,2.76,0,0,1,12,4.58l.22,0c1.32.19,2.93,2.11,2.55,4.79A5.54,5.54,0,0,1,10,13.92Z"/><path class="cls-2" d="M12,4.76h.2c1.25.19,2.76,2,2.4,4.59-.34,2.38-2.74,4.39-4.59,4.39a3.13,3.13,0,0,1-.43,0,3.4,3.4,0,0,1-2.2-1.48A3,3,0,0,1,7,11.65L9.2,6.35a7.62,7.62,0,0,1,1.59-1.23A2.52,2.52,0,0,1,12,4.76m0-.35h0a2.82,2.82,0,0,0-1.33.4,7.58,7.58,0,0,0-1.68,1.3l0,0,0,.07-2.18,5.3-.05.13.05.13a4.28,4.28,0,0,0,.35.64,3.72,3.72,0,0,0,2.43,1.63,2.63,2.63,0,0,0,.49,0c1.94,0,4.57-2.09,4.94-4.69.39-2.78-1.31-4.78-2.7-5Z"/><path class="cls-3" d="M14.55,9.36c-.36,2.57-3.14,4.7-5,4.35a3.4,3.4,0,0,1-2.2-1.48,7,7,0,0,1,1-1.38c.26-.19.78.22.68.86a2.09,2.09,0,0,1-.58,1.1s.63,1.09,2.76.37a4.88,4.88,0,0,0,2.84-6.09c-1-2.48-3-1.7-3-1.7l-.25-.27a2.28,2.28,0,0,1,1.36-.35C13.4,5,14.91,6.8,14.55,9.36Z"/><ellipse class="cls-3" cx="14.25" cy="8.58" rx="0.35" ry="0.8"/><ellipse class="cls-3" cx="13.73" cy="9.6" rx="0.23" ry="0.37"/><path class="cls-8" d="M6.62,13.24a2.66,2.66,0,0,1-1.74-.8A4.48,4.48,0,0,0,4.31,12a2.38,2.38,0,0,1-1-2.89l0-.13.25,0,5.64,1v.15s0,.08,0,.22a3,3,0,0,1-1.71,2.69A2.6,2.6,0,0,1,6.62,13.24Z"/><path class="cls-2" d="M3.44,9.19h.1l5.49,1s0,.08,0,.21a2.76,2.76,0,0,1-1.59,2.54,2.55,2.55,0,0,1-.81.14c-1,0-1.55-.8-2.22-1.2a2.19,2.19,0,0,1-1-2.67M3.21,8.8l-.1.26a2.53,2.53,0,0,0,1.11,3.11,3.75,3.75,0,0,1,.54.4,2.77,2.77,0,0,0,1.86.84,2.83,2.83,0,0,0,.92-.16A3.11,3.11,0,0,0,9.37,10.4a1,1,0,0,0,0-.23v-.3l-.28,0-5.5-1-.11,0-.28,0Z"/><path class="cls-3" d="M9,10.38a2.76,2.76,0,0,1-1.59,2.54c-1.62.54-2.21-.57-3-1.06a2.19,2.19,0,0,1-1-2.67h.1l0,.05a3,3,0,0,0,.12,1.52,2.85,2.85,0,0,0,1.23,1.12,2.3,2.3,0,0,0,2.34.78c1.45-.42,1.51-2.43,1.51-2.43Z"/><path class="cls-9" d="M4.49,6V5.87a4.32,4.32,0,0,1,.43-1.51A3.34,3.34,0,0,1,6.69,2.61a3.67,3.67,0,0,1,1.4-.27A3.63,3.63,0,0,1,11.66,4.9a2.35,2.35,0,0,1-.23,1.85,2.21,2.21,0,0,1-.92.82l-.06,0Z"/><path class="cls-2" d="M8.09,2.51a3.45,3.45,0,0,1,3.4,2.43,2.2,2.2,0,0,1-.21,1.72,1.92,1.92,0,0,1-.84.74L4.67,5.88a4.53,4.53,0,0,1,.41-1.45A3.25,3.25,0,0,1,6.75,2.77a3.47,3.47,0,0,1,1.34-.26m0-.35h0a3.82,3.82,0,0,0-1.47.29A3.5,3.5,0,0,0,4.77,4.29a4.68,4.68,0,0,0-.45,1.57l0,.29.28.07,5.77,1.52.12,0,.1,0a2.33,2.33,0,0,0,1-.89,2.54,2.54,0,0,0,.25-2,3.81,3.81,0,0,0-3.74-2.7Z"/><path class="cls-3" d="M11.28,6.66C11.36,6,11.49,3.54,9,3A4.22,4.22,0,0,0,5.08,4.43,3.25,3.25,0,0,1,6.75,2.77a3.56,3.56,0,0,1,4.74,2.17A2.2,2.2,0,0,1,11.28,6.66Z"/><path class="cls-10" d="M5.46,11.59a1.18,1.18,0,0,1-.26,0,3.12,3.12,0,0,1-1.91-2A3.67,3.67,0,0,1,3.49,6,2.31,2.31,0,0,1,5.43,4.93a3.2,3.2,0,0,1,1.67.53l.07,0,.2,4.26C7.34,9.91,6.77,11.59,5.46,11.59Z"/><path class="cls-2" d="M5.43,5.11A3,3,0,0,1,7,5.61V5.8l.1,2.28.08,1.7s-.53,1.64-1.73,1.64l-.23,0c-1.37-.24-3-3.39-1.6-5.29a2.16,2.16,0,0,1,1.8-1m0-.35h0A2.51,2.51,0,0,0,3.35,5.9a3.86,3.86,0,0,0-.22,3.73,3.23,3.23,0,0,0,2,2.11l.29,0c1.44,0,2-1.8,2.07-1.88l0-.06V9.76L7.46,8.07l-.1-2.29V5.42l-.14-.1a3.42,3.42,0,0,0-1.77-.56Z"/><path class="cls-3" d="M7.19,9.78s-.6,1.85-2,1.62S2.26,8,3.63,6.11A2.39,2.39,0,0,1,7,5.61V5.8a3.77,3.77,0,0,0-2-.33c-1.2.26-1.8,1.56-1.5,3.16s1.26,2.51,2,2.5,1.31-.9,1.31-.9A1.78,1.78,0,0,1,5.36,9a2.64,2.64,0,0,1,.39-2.16L7.11,8.08Z"/><path class="cls-11" d="M9.1,11.54a2.36,2.36,0,0,1-2-.94.87.87,0,0,1,0-.92A4.56,4.56,0,0,1,8,8.79c.19-.18.4-.38.6-.6A2.21,2.21,0,0,0,8.74,6L8.69,5.9l.09-.09a1.94,1.94,0,0,1,1.29-.56A2,2,0,0,1,11.54,6a2.87,2.87,0,0,1,.87,2.15A3.91,3.91,0,0,1,11,10.8,2.87,2.87,0,0,1,9.1,11.54Z"/><path class="cls-2" d="M10.07,5.42a1.91,1.91,0,0,1,1.35.68c1.37,1.42.89,3.31-.55,4.57a2.66,2.66,0,0,1-1.77.69,2.2,2.2,0,0,1-1.83-.85.7.7,0,0,1,0-.74A13.42,13.42,0,0,1,8.68,8.31,2.38,2.38,0,0,0,8.9,5.94h0a1.66,1.66,0,0,1,1.16-.52m0-.35h0a2,2,0,0,0-1.42.63l-.16.17.09.21a2.06,2.06,0,0,1-.16,2c-.2.21-.4.4-.59.58A5,5,0,0,0,7,9.59a1,1,0,0,0,0,1.09,2.51,2.51,0,0,0,2.13,1,3,3,0,0,0,2-.78,4.07,4.07,0,0,0,1.48-2.8,3.08,3.08,0,0,0-.91-2.28,2.26,2.26,0,0,0-1.6-.78Z"/><path class="cls-3" d="M10.87,10.67a2.46,2.46,0,0,1-3.6-.16.7.7,0,0,1,0-.74,1.66,1.66,0,0,0,.14.49,2.08,2.08,0,0,0,3.19.2c1.48-1.33,1.56-3,.51-4.18a1.63,1.63,0,0,0-2.22-.34,1.62,1.62,0,0,1,2.51.16C12.79,7.52,12.31,9.41,10.87,10.67Z"/><path class="cls-12" d="M7.5,10.2A2.24,2.24,0,0,1,6,9.57a2.72,2.72,0,0,1,.1-3.94A1.87,1.87,0,0,1,7.51,5,2.83,2.83,0,0,1,9.82,6.23a2,2,0,0,1-.23,1.91l-.3.45,0-.06v0a1.87,1.87,0,0,1-.73,1.32l0,0h0A1.74,1.74,0,0,1,7.5,10.2Z"/><path class="cls-2" d="M7.51,5.22A2.65,2.65,0,0,1,9.66,6.31a1.78,1.78,0,0,1-.22,1.74l-.06.08S9.13,6.61,7.75,6.61h0a1.78,1.78,0,0,1,.7,3.12h0A1.54,1.54,0,0,1,7.5,10a2.07,2.07,0,0,1-1.39-.59,2.54,2.54,0,0,1,.11-3.7,1.73,1.73,0,0,1,1.29-.52m0-.35h0A2.06,2.06,0,0,0,6,5.51a2.87,2.87,0,0,0-.09,4.18,2.39,2.39,0,0,0,1.63.69,1.89,1.89,0,0,0,1-.29h0l.1-.09a2.05,2.05,0,0,0,.77-1.3l.24-.37.06-.08A2.11,2.11,0,0,0,10,6.15,3,3,0,0,0,7.51,4.87Z"/><path class="cls-3" d="M9.44,8a1.58,1.58,0,0,0-.07-1.69A2.34,2.34,0,0,0,6.8,5.61,2.32,2.32,0,0,0,5.62,7.93,2,2,0,0,0,7.47,9.87a1.6,1.6,0,0,0,.94-.13,1.83,1.83,0,0,1-2.3-.3,2.54,2.54,0,0,1,.11-3.7c1-1.08,3-.28,3.44.57a1.78,1.78,0,0,1-.22,1.74Z"/><path class="cls-13" d="M9.29,8.45A2.06,2.06,0,0,0,7.91,6.67C6.67,6.35,6.23,7.9,6.82,8.31s1.49,0,1.36-.51a.38.38,0,0,0-.76,0"/><ellipse class="cls-3" cx="7.99" cy="0.85" rx="0.84" ry="0.36"/><ellipse class="cls-3" cx="8.72" cy="1.44" rx="0.31" ry="0.18"/><ellipse class="cls-3" cx="7.48" cy="5.54" rx="0.47" ry="0.29"/><ellipse class="cls-3" cx="8.07" cy="5.92" rx="0.21" ry="0.13"/><ellipse class="cls-3" cx="2.28" cy="4.08" rx="0.63" ry="0.36" transform="translate(-2.4 4.19) rotate(-62.15)"/><ellipse class="cls-3" cx="2.4" cy="4.98" rx="0.29" ry="0.17" transform="translate(-3.13 4.77) rotate(-62.15)"/></g></g></svg>