<svg xmlns="http://www.w3.org/2000/svg" viewBox="0 0 50.68 22.86"><defs><style>.cls-1{isolation:isolate;}.cls-2{fill:#fff;}.cls-3{fill:#466391;}.cls-4{fill:#e08699;opacity:0.5;mix-blend-mode:multiply;}.cls-5{fill:#fa96aa;}.cls-6{fill:#433754;}.cls-7{fill:#5b4b73;}</style></defs><g class="cls-1"><g id="Layer_2" data-name="Layer 2"><g id="Layer_1-2" data-name="Layer 1"><path class="cls-2" d="M44.08,22.1c-1.66,0-3.66,0-5.34-.12a10.65,10.65,0,0,1-3.17-.66,8.2,8.2,0,0,1-2.75-1.66.33.33,0,0,1-.1-.28.32.32,0,0,1,.15-.25l4.94-3.25a.35.35,0,0,1,.19-.06.28.28,0,0,1,.13,0,29.44,29.44,0,0,0,7.19,1.8c2.71.22,3.46,1.8,3.65,2.47a1.87,1.87,0,0,1,0,1.49C48.8,21.81,48.59,22.1,44.08,22.1Z"/><path class="cls-3" d="M38,16.17A29,29,0,0,0,45.29,18c2.19.18,3.08,1.3,3.35,2.22a1.61,1.61,0,0,1,0,1.21c-.17.25-2.19.34-4.56.34-1.78,0-3.76-.05-5.33-.12A10.06,10.06,0,0,1,35.69,21a8.15,8.15,0,0,1-2.63-1.57L38,16.17m0-.69a.76.76,0,0,0-.38.11l-4.94,3.25a.72.72,0,0,0-.31.51.74.74,0,0,0,.2.56,8.83,8.83,0,0,0,2.87,1.73,10.84,10.84,0,0,0,3.28.69c1.69.07,3.7.12,5.37.12,4.68,0,4.9-.31,5.13-.63A2.27,2.27,0,0,0,49.3,20c-.21-.72-1-2.46-3.95-2.7a29,29,0,0,1-7.09-1.77.75.75,0,0,0-.26,0Z"/><path class="cls-4" d="M48.65,21.42c-.31.43-6.22.38-9.89.22A10.06,10.06,0,0,1,35.69,21a3.54,3.54,0,0,1,1-1.37,35.91,35.91,0,0,0,7.12,1.08c1.35-.06,3.35-.3,4.83-.49A1.61,1.61,0,0,1,48.65,21.42Z"/><path class="cls-2" d="M3,17A2.36,2.36,0,0,1,.4,15a3.34,3.34,0,0,1,0-1c.24-1.74,1.89-2.87,4.2-2.87a8.24,8.24,0,0,1,.85.05,23.45,23.45,0,0,0,2.82.16c.62,0,1,0,1,0h0a.34.34,0,0,1,.24.09.38.38,0,0,1,.11.26l-.08,2.52,0,1.37a.36.36,0,0,1-.34.34A15.25,15.25,0,0,0,5,16.54,5.17,5.17,0,0,1,3,17Z"/><path class="cls-3" d="M4.57,11.47a7.57,7.57,0,0,1,.81,0,23.66,23.66,0,0,0,2.86.17c.63,0,1,0,1,0l-.08,2.52,0,1.37a15.72,15.72,0,0,0-4.27.68A4.83,4.83,0,0,1,3,16.65,2,2,0,0,1,.74,14.93a3.37,3.37,0,0,1,0-.89c.21-1.51,1.69-2.57,3.86-2.57m4.69.18h0m-4.69-.88h0C2.11,10.77.29,12.05,0,14A3.37,3.37,0,0,0,.06,15,2.67,2.67,0,0,0,3,17.34a5.57,5.57,0,0,0,2.2-.49,14.56,14.56,0,0,1,4-.62.68.68,0,0,0,.67-.66l0-1.38L10,11.73v-.08A.69.69,0,0,0,9.26,11h0c-.05,0-.41,0-1,0a24.72,24.72,0,0,1-2.77-.16,7,7,0,0,0-.9-.06Z"/><path class="cls-4" d="M9.18,14.17l0,1.37a15.72,15.72,0,0,0-4.27.68c-1.32.6-3.75.87-4.12-1.29a3.37,3.37,0,0,1,0-.89,2,2,0,0,0,2.07,1.23c3,0,2.57-.79,5.71-1Z"/><path class="cls-2" d="M16.59,20.49c-5.9,0-6.25-.26-6.44-.4-1.18-.82-3.1-6.36,0-11.44,1.51-2.47,4.14-3.77,7.61-3.77a17.33,17.33,0,0,1,5.71,1,12.61,12.61,0,0,0,4.3.75,7.78,7.78,0,0,0,1.44-.1h.06a.35.35,0,0,1,.34.28l2.18,11.64.24,1.27a.33.33,0,0,1-.32.41c-.05,0-4.45.17-9.21.26l-1.06,0-2.57,0Z"/><path class="cls-3" d="M17.78,5.22a16.76,16.76,0,0,1,5.59,1A13.08,13.08,0,0,0,27.79,7a10.81,10.81,0,0,0,1.5-.09l2.18,11.63.24,1.27s-4.38.17-9.2.26l-1.06,0-2.57,0H16.59c-3.28,0-5.89-.08-6.24-.34-1-.73-2.9-6.06.12-11C12.15,6.06,15,5.22,17.78,5.22m0-.69c-3.6,0-6.33,1.36-7.9,3.94-3.28,5.34-1.21,11,.07,11.91.26.19.63.46,6.64.46h2.3l2,0H22l.55,0c4.75-.09,9.16-.25,9.2-.25a.72.72,0,0,0,.52-.27.69.69,0,0,0,.13-.56l-.24-1.27L30,6.78a.7.7,0,0,0-.68-.57h-.12a9.27,9.27,0,0,1-1.38.09,12.27,12.27,0,0,1-4.18-.72,17.59,17.59,0,0,0-5.83-1.06Z"/><path class="cls-2" d="M34.94,22c-4.19,0-7.87-1.49-9.83-4a7.68,7.68,0,0,1-1.31-6.78,13.26,13.26,0,0,1,3-5.38C27,3.83,28,.35,29.44.35c.27,0,1.06,0,2.88,2.43a11.8,11.8,0,0,1,2.46-.25c.33,0,.68,0,1,0a14.89,14.89,0,0,1,3,.54c.92-.89,2.46-2.23,3.52-2.23a1.08,1.08,0,0,1,.6.17c1,.62.95,3.16.76,5.25a9.24,9.24,0,0,1,1.9,5,6.85,6.85,0,0,1,.51,5.35c-.73,1.95-2.54,3.43-5.4,4.39a17.82,17.82,0,0,1-5.75.95Z"/><path class="cls-3" d="M29.44.69c.78,0,2,1.45,2.73,2.48a11.78,11.78,0,0,1,2.61-.29c.32,0,.66,0,1,0a14,14,0,0,1,3.11.58c.68-.68,2.38-2.27,3.42-2.27a.7.7,0,0,1,.41.11c.93.59.71,3.82.59,5.07a8.87,8.87,0,0,1,1.92,5s3.8,6.45-4.66,9.31a17.59,17.59,0,0,1-5.64.93c-6.62,0-12.37-3.82-10.8-10.33a12.89,12.89,0,0,1,3-5.32C27.27,3.75,28.39.69,29.44.69m0-.69c-1.7,0-2.78,3.57-2.94,5.69a13.61,13.61,0,0,0-3,5.45,8,8,0,0,0,1.37,7.07c2,2.58,5.8,4.11,10.1,4.11a18.22,18.22,0,0,0,5.86-1c3-1,4.85-2.55,5.61-4.6a7.12,7.12,0,0,0-.49-5.56A9.55,9.55,0,0,0,44,6.2c.41-4.59-.59-5.23-.92-5.44a1.4,1.4,0,0,0-.79-.22c-1.08,0-2.51,1.12-3.61,2.18a15.76,15.76,0,0,0-2.87-.49c-.35,0-.71,0-1.06,0a12.67,12.67,0,0,0-2.32.21C30.83.26,30,0,29.44,0Z"/><path class="cls-2" d="M40.59,20.71c-4.68,1.57-10.08,1.23-13.62-.8a6.93,6.93,0,0,1-3.63-8.1A12.33,12.33,0,0,1,27.17,6c.1-2.22,1.22-5.29,2.28-5.29.78,0,2,1.46,2.72,2.47a12.3,12.3,0,0,1,3.62-.24,13.86,13.86,0,0,1,3.12.58c.76-.77,2.9-2.75,3.82-2.16s.71,3.81.59,5.07a8.87,8.87,0,0,1,1.92,5,7.43,7.43,0,0,1,.72,2v0C46.39,15.52,46,18.86,40.59,20.71Z"/><path class="cls-4" d="M40.59,20.71c-4.68,1.57-10.08,1.23-13.62-.8a33,33,0,0,0,12.47-.05c5.69-1.22,6.47-4.81,6.52-6.48C46.39,15.52,46,18.86,40.59,20.71Z"/><path class="cls-2" d="M31.22,22.51c-2,0-4-.08-5.48-.23-3.79-.39-4.93-2.51-5-2.6a.34.34,0,0,1,.12-.44l4.29-3a.33.33,0,0,1,.19-.06.32.32,0,0,1,.14,0,35.45,35.45,0,0,0,7.61,2.27c2.42.33,3.19,1.4,3.44,2A1.55,1.55,0,0,1,36.48,22C36.39,22.13,36.08,22.51,31.22,22.51Z"/><path class="cls-3" d="M25.36,16.56a35.86,35.86,0,0,0,7.71,2.29c3.47.47,3.47,2.52,3.14,2.94-.19.24-2.43.38-5,.38-1.87,0-3.91-.07-5.45-.23-3.64-.38-4.7-2.42-4.7-2.42l4.29-3m0-.69A.71.71,0,0,0,25,16l-4.29,3a.69.69,0,0,0-.22.89c.05.1,1.27,2.38,5.24,2.79,1.45.14,3.47.23,5.52.23,5,0,5.35-.4,5.54-.64a1.93,1.93,0,0,0,.11-1.83c-.28-.68-1.12-1.87-3.71-2.22a35.21,35.21,0,0,1-7.52-2.25.66.66,0,0,0-.28-.05Z"/><path class="cls-2" d="M36.22,21.79c-.22.27-3,.41-5.89.37H30.2c-1.56,0-3.17-.09-4.43-.23a7.24,7.24,0,0,1-3.37-1.11l-.1-.06a5.31,5.31,0,0,1-.85-.66,5.46,5.46,0,0,1-1.18-1.53l.23-.17,3.16-2.14,1.64-.65a25.25,25.25,0,0,0,6.17,2.93c.28.07.57.15.85.2s.5.09.74.11A4.15,4.15,0,0,1,36,20.19,1.44,1.44,0,0,1,36.22,21.79Z"/><path class="cls-4" d="M36.22,21.79c-.22.27-3,.41-5.89.37H30.2c-1.56,0-3.17-.09-4.43-.23a7.24,7.24,0,0,1-3.37-1.11l-.1-.06a5.31,5.31,0,0,1-.85-.66l-2.57,0c-1-1.38-1.7-2.71-.56-2.58a4.4,4.4,0,0,1,2.18.84c.8.57,1.36,1.29,2,1.67,0,0,.07.05.11.08,1.19.65,6.18,1.61,10.44,1.14A4.36,4.36,0,0,0,36,20.19,1.44,1.44,0,0,1,36.22,21.79Z"/><path class="cls-2" d="M15.89,22.12c-2.6,0-4.26-.31-5.07-.95a6.59,6.59,0,0,1-2.18-4.83.34.34,0,0,1,.12-.26A.35.35,0,0,1,9,16H9l6.41,1.08h.08a6.47,6.47,0,0,1,4.24,1.27,3.24,3.24,0,0,1,1.28,2.38c0,.74-.41,1.26-1,1.26L18.9,22C18.1,22.06,17,22.12,15.89,22.12Z"/><path class="cls-3" d="M9,16.34l6.41,1.08h.14c5.45,0,5.89,4.21,4.51,4.21-.66,0-2.37.15-4.15.15s-4-.18-4.86-.88a6.33,6.33,0,0,1-2-4.56m0-.69a.66.66,0,0,0-.44.17.67.67,0,0,0-.25.52,7,7,0,0,0,2.31,5.1c.89.7,2.57,1,5.29,1,1.12,0,2.23-.06,3-.1.49,0,.88-.05,1.12-.05a1.43,1.43,0,0,0,1.36-1.6c0-1.54-1.59-4-5.87-4h-.08L9.1,15.66Z"/><path class="cls-2" d="M20.72,20.66c0,.57-.26,1-.68,1-1.39,0-7.28.63-9-.75a.81.81,0,0,1-.19-.18h0a3.11,3.11,0,0,1-.44-.43l-.07-.09c-.12-.16-.26-.36-.41-.59l-.15-.26c-.08-.15-.15-.31-.23-.48l-.08-.19s0,0,0-.06a1.12,1.12,0,0,1-.08-.26,1.6,1.6,0,0,1-.1-.31c0-.09,0-.15-.07-.24s-.06-.3-.09-.44h0a13.83,13.83,0,0,1-.25-2.21H11l4.31,1.54s2.54,1,3.37,1.39A3.07,3.07,0,0,1,20.72,20.66Z"/><path class="cls-4" d="M20.72,20.66c0,.57-.26,1-.68,1-1.39,0-7.28.63-9-.75a.81.81,0,0,1-.19-.18h0a3.11,3.11,0,0,1-.44-.43l-.07-.09c-.12-.16-.26-.36-.41-.59l-.15-.26c-.08-.15-.15-.31-.23-.48l-.08-.19s0,0,0-.06a1.12,1.12,0,0,1-.08-.26c.71,1,2.18,2.11,5.21,2.29A52.37,52.37,0,0,0,20.72,20.66Z"/><path class="cls-5" d="M31.62,4.57S30.49,2.7,29.76,2.7s-1,3.11-1,3.11A12.73,12.73,0,0,1,31.62,4.57Z"/><path class="cls-5" d="M40.17,4.4S41.58,3.09,42,3.14s.16,2.45.16,2.45Z"/><circle class="cls-6" cx="33.53" cy="10.35" r="0.83"/><circle class="cls-6" cx="42.44" cy="9.98" r="0.83"/><path class="cls-7" d="M38.48,12.94a3.09,3.09,0,0,0-3.62-1.32c-2.64.62-2.95,2.76-5.16,2.78s-2.27-2.4-.4-1.93a1.47,1.47,0,0,0-1.69-.85c-1.29.22-2.25,3.21.39,4.65a7.16,7.16,0,0,0,6.65.49c1.9-.63,3.47-2.42,3.83-2.43s1.85,2.33,6,2.5,6.16-1.42,6.21-3.38a1.68,1.68,0,0,0-2.78-1.38,1.44,1.44,0,0,1,1.35,1.2c.12,1.11-2.6,2.08-4.51-.12S38.92,10.86,38.48,12.94Z"/><path class="cls-5" d="M38.23,18c-.26,0-.87,0-1.08-.27a.32.32,0,0,1-.08-.24,1.3,1.3,0,0,1,1.24-1.07h.16a1.29,1.29,0,0,1,1,.49.67.67,0,0,1,.18.57C39.58,17.81,38.84,18,38.23,18Z"/><path class="cls-3" d="M38.47,16.48c.69,0,1.17.56,1.09.92s-.73.43-1.33.43-1.07-.13-1-.38a1.19,1.19,0,0,1,1.14-1h.14m0-.24H38.3A1.42,1.42,0,0,0,37,17.42a.43.43,0,0,0,.1.34,1.8,1.8,0,0,0,1.18.31c.23,0,1.43,0,1.57-.62a.81.81,0,0,0-.2-.68,1.45,1.45,0,0,0-1.13-.53Z"/></g></g></g></svg>