<svg xmlns="http://www.w3.org/2000/svg" xmlns:xlink="http://www.w3.org/1999/xlink" viewBox="0 0 50.59 70.34"><defs><style>.cls-1{isolation:isolate;}.cls-2{fill:url(#linear-gradient);}.cls-3{fill:#34254a;}.cls-4{fill:#261b36;opacity:0.32;}.cls-4,.cls-5{mix-blend-mode:overlay;}.cls-5{fill:#eee3ff;opacity:0.62;}.cls-6{fill:url(#linear-gradient-2);}.cls-7{fill:url(#linear-gradient-3);}.cls-8{fill:url(#radial-gradient);}.cls-9{fill:#385e8f;}.cls-10{fill:#fff;}.cls-11{fill:url(#radial-gradient-2);}.cls-12{fill:url(#radial-gradient-3);}.cls-13{fill:url(#radial-gradient-4);}.cls-14{fill:url(#radial-gradient-5);}.cls-15{fill:url(#radial-gradient-6);}.cls-16{fill:url(#radial-gradient-7);}.cls-17{fill:url(#radial-gradient-8);}.cls-18{fill:url(#radial-gradient-9);}.cls-19{fill:url(#radial-gradient-10);}.cls-20{fill:none;stroke:#385e8f;stroke-miterlimit:10;stroke-width:0.5px;}</style><linearGradient id="linear-gradient" x1="38.11" y1="63.53" x2="38.49" y2="36.29" gradientUnits="userSpaceOnUse"><stop offset="0" stop-color="#8c76ae"/><stop offset="0.13" stop-color="#826da2"/><stop offset="0.46" stop-color="#6c5a88"/><stop offset="0.76" stop-color="#604f78"/><stop offset="1" stop-color="#5b4b73"/></linearGradient><linearGradient id="linear-gradient-2" x1="43.66" y1="19.85" x2="37.84" y2="44.39" xlink:href="#linear-gradient"/><linearGradient id="linear-gradient-3" x1="129.05" y1="281.25" x2="125.64" y2="295.61" gradientTransform="matrix(0.96, -0.29, 0.29, 0.96, -166.44, -218.15)" xlink:href="#linear-gradient"/><radialGradient id="radial-gradient" cx="-1.61" cy="8.24" r="27.94" gradientUnits="userSpaceOnUse"><stop offset="0.12" stop-color="#e8f9ff"/><stop offset="0.14" stop-color="#e4f8ff"/><stop offset="0.25" stop-color="#caf2ff"/><stop offset="0.35" stop-color="#baeeff"/><stop offset="0.42" stop-color="#b5edff"/><stop offset="0.54" stop-color="#d4f3ff"/><stop offset="0.66" stop-color="#c0efff"/><stop offset="0.8" stop-color="#b0ebff"/><stop offset="0.9" stop-color="#abeaff"/></radialGradient><radialGradient id="radial-gradient-2" cx="2.6" cy="27.41" r="27.47" xlink:href="#radial-gradient"/><radialGradient id="radial-gradient-3" cx="8.09" cy="-7.16" r="32.5" xlink:href="#radial-gradient"/><radialGradient id="radial-gradient-4" cx="34.79" cy="2.43" r="21.06" xlink:href="#radial-gradient"/><radialGradient id="radial-gradient-5" cx="32.37" cy="32.6" r="24.69" xlink:href="#radial-gradient"/><radialGradient id="radial-gradient-6" cx="7.25" cy="32.23" r="30.57" xlink:href="#radial-gradient"/><radialGradient id="radial-gradient-7" cx="26.94" cy="7.23" r="23.88" xlink:href="#radial-gradient"/><radialGradient id="radial-gradient-8" cx="9.17" cy="16.37" r="25.66" xlink:href="#radial-gradient"/><radialGradient id="radial-gradient-9" cx="27.88" cy="25.19" r="27.15" xlink:href="#radial-gradient"/><radialGradient id="radial-gradient-10" cx="19.96" cy="17.13" r="26.74" xlink:href="#radial-gradient"/></defs><g class="cls-1"><g id="Layer_2" data-name="Layer 2"><g id="Layer_1-2" data-name="Layer 1"><path class="cls-2" d="M35.89,70.08a.33.33,0,0,1-.14,0,.27.27,0,0,1-.12-.27l0-.33c0-.27.09-.55.12-.84,2-14.06-1.13-46-1.17-46.35a.28.28,0,0,1,.21-.29h.06a.26.26,0,0,1,.25.17L36.56,26l.57,1.59s.34,1.68.8,4.24c0,0,0,.1,0,.11.22,1.17.47,2.54.73,4l0,.22c1.9,10.66,4,23.88,3.35,26.34-1.07,3.82-5.82,7.35-6,7.49A.25.25,0,0,1,35.89,70.08Z"/><path class="cls-3" d="M34.9,22.22l1.41,3.88.57,1.59s.32,1.64.79,4.2c0,0,0,.07,0,.11.21,1.17.47,2.54.73,4l0,.21c1.7,9.46,4.06,23.74,3.36,26.22-1.06,3.78-5.92,7.36-5.92,7.36.06-.38.13-.78.18-1.18h0c2-14.24-1.17-46.4-1.17-46.4m0-.53h-.12a.54.54,0,0,0-.41.58c0,.32,3.12,32.26,1.17,46.26,0,0,0,0,0,0q0,.42-.12.81l0,.33a.52.52,0,0,0,.53.61.55.55,0,0,0,.32-.1c.2-.15,5-3.73,6.12-7.64C43,60.1,40.89,46.83,39,36.14l0-.21c-.27-1.49-.52-2.86-.73-4,0,0,0,0,0-.07a.18.18,0,0,0,0-.06c-.46-2.55-.78-4.18-.78-4.18l0-.08-.57-1.59L35.41,22a.54.54,0,0,0-.51-.35Z"/><path class="cls-4" d="M41.09,60.07C40.77,62,38,65.43,37.42,65.43s.48-3.62,0-13.69-1.66-24.53-1.66-24.53l.55-1.11.57,1.59s.32,1.64.79,4.2c0,0,0,.07,0,.11C39,41.74,41.31,58.69,41.09,60.07Z"/><path class="cls-5" d="M41.81,62.45c-1.06,3.78-5.92,7.36-5.92,7.36.06-.38.13-.78.18-1.18h0c1.58-1.65,4.27-4.57,5-6.15,1-2.09-2.29-23.87-2.65-26.24C40.15,45.69,42.51,60,41.81,62.45Z"/><path class="cls-6" d="M45.35,46.08c-1.9,0-4-1.78-5.48-4.64-3.32-6.44-6-22.42-6-22.58a.25.25,0,0,1,.14-.28.27.27,0,0,1,.12,0,.24.24,0,0,1,.19.08l2,2a.28.28,0,0,1,.07.13c1.88,8.79,5.6,21.85,8.19,21.85a.69.69,0,0,0,.2,0,.64.64,0,0,0,.4-.36c.35-.68.4-2.55-1.28-7.58a.3.3,0,0,1,0-.1c-.89-2.64-2.12-5.72-3.77-9.49-1.43-3.27-2.67-5.85-2.9-6.31a.27.27,0,0,1,.1-.35.23.23,0,0,1,.14,0,.28.28,0,0,1,.22.11c.09.13,9.1,13,10.53,20.94.5,2.81.14,4.93-1,6A2.52,2.52,0,0,1,45.35,46.08Z"/><path class="cls-3" d="M37.37,18.64c.59.84,9.12,13.24,10.49,20.83.52,2.93,0,4.84-.93,5.74a2.29,2.29,0,0,1-1.58.6c-1.64,0-3.7-1.51-5.24-4.49-3.34-6.49-6-22.51-6-22.51l.39.41,1.59,1.62S40.78,42.9,44.52,42.9a1,1,0,0,0,.29,0c1.43-.46.71-4-.72-8.29a.11.11,0,0,1,0-.06v0C43,31.37,41.55,27.87,40.28,25c-1.47-3.37-2.72-5.95-2.91-6.33m0-.54a.48.48,0,0,0-.28.08.53.53,0,0,0-.2.7c.23.45,1.46,3,2.9,6.3,1.63,3.73,2.9,6.92,3.76,9.48v0a.3.3,0,0,0,0,.1c1.73,5.17,1.55,6.81,1.28,7.33a.42.42,0,0,1-.24.23l-.12,0c-2.28,0-6-12.66-7.93-21.64a.51.51,0,0,0-.14-.26l-1.58-1.63-.39-.4a.54.54,0,0,0-.39-.16.53.53,0,0,0-.24.06.52.52,0,0,0-.29.56c.11.66,2.74,16.18,6.07,22.66,1.53,3,3.72,4.79,5.72,4.79a2.81,2.81,0,0,0,1.94-.75c1.22-1.12,1.61-3.33,1.1-6.22-1.45-8-10.49-20.92-10.58-21.05a.54.54,0,0,0-.44-.23Z"/><path class="cls-5" d="M46.93,45.21c.65-1,1.27-2.84.32-6.14-1.6-5.52-5.71-13.19-5.71-13.19L40.28,25c-1.47-3.37-2.72-5.95-2.91-6.33.59.84,9.12,13.24,10.49,20.83C48.38,42.4,47.91,44.31,46.93,45.21Z"/><path class="cls-4" d="M45.86,43.56c-1.4,1.65-4.08,1.11-6.5-5.15-2.17-5.6-4.45-16.7-4.88-19.19l1.59,1.62s5,23.23,8.74,22c1.43-.46.71-4-.72-8.29C44.38,35.25,47.18,42,45.86,43.56Z"/><path class="cls-7" d="M48.19,26.83c-4.17,0-17.17-6.28-17.83-6.9a.94.94,0,0,1-.14-.19,1.82,1.82,0,0,1-.18-.37,19,19,0,0,1-.64-3.75.27.27,0,0,1,.21-.32s2.5-.65,5.67-1.36a66.27,66.27,0,0,1,11.91-1.8c1.52,0,2.47.23,2.92.69s0,1.73-.75,3.67a7.51,7.51,0,0,0-.75,2.31c0,.05,3.06,5.29.89,7.61A1.72,1.72,0,0,1,48.19,26.83Z"/><path class="cls-3" d="M47.19,12.41a4.25,4.25,0,0,1,2.73.6c.76.78-2,5.21-1.54,5.93s2.78,5.31.92,7.3a1.5,1.5,0,0,1-1.11.32c-4.18,0-17.09-6.3-17.64-6.83,0,0-.06-.07-.09-.12a2,2,0,0,1-.17-.33,17.44,17.44,0,0,1-.62-3.68s0,0,0,0,2.46-.64,5.67-1.36h0a65.57,65.57,0,0,1,11.84-1.79m0-.53h0a66.09,66.09,0,0,0-11.95,1.79l-.06,0C32,14.39,29.56,15,29.54,15a.54.54,0,0,0-.33.26.52.52,0,0,0-.07.27v.06a17.48,17.48,0,0,0,.65,3.84,1.94,1.94,0,0,0,.22.43.92.92,0,0,0,.2.25c.63.61,13.6,7,18,7a2,2,0,0,0,1.51-.5c2.19-2.33-.52-7.33-.83-7.88a10.21,10.21,0,0,1,.74-2.12c.84-2,1.33-3.31.69-4s-1.5-.76-3.11-.76Z"/><path class="cls-5" d="M48.38,18.94c.42.72,2.78,5.31.92,7.3s-18.13-5.91-18.75-6.51c0,0-.06-.07-.09-.12,1.11.61,2.41,1.25,3.9,1.9,6.32,2.78,14.14,5,14.79,3.29s-1.59-5.39-1.69-6.18,2.56-4.84,1.07-5.53c-1-.44-8.14.43-13.18,1.11C40.84,13,48.53,11.59,49.92,13,50.68,13.79,48,18.22,48.38,18.94Z"/><ellipse class="cls-5" cx="44.66" cy="13.39" rx="1.38" ry="0.6" transform="translate(-0.93 3.62) rotate(-4.6)"/><ellipse class="cls-5" cx="43.44" cy="14.38" rx="0.6" ry="0.29" transform="matrix(1, -0.08, 0.08, 1, -1.01, 3.53)"/><path class="cls-4" d="M43.05,19c-.16.93,3.68,2.61,2.77,4-.76,1.13-11.78-2.43-15.53-3.68a17.44,17.44,0,0,1-.62-3.68c2.73-.1,12.72-.45,14.62.4C46.48,17,43.21,18.05,43.05,19Z"/><path class="cls-8" d="M5.2,30.33S4.69,29.86,4,29.12C2.35,27.23.33,24.43.26,21.79a7,7,0,0,1,1.83-4.93,9.68,9.68,0,0,0,1.78-3.27,1.91,1.91,0,0,1,1.59-1.42,3.94,3.94,0,0,1,1-.11,15.52,15.52,0,0,1,7.23,2.47l.07.11,0,.16c-.08.29-.92,6-1.46,9.71l0,.09L5.36,30.47Z"/><path class="cls-9" d="M6.47,12.31c2.85,0,7.12,2.18,7.05,2.41s-1.47,9.75-1.47,9.75L5.37,30.14S4.88,29.69,4.21,29C2.82,27.38.58,24.48.51,21.79c-.12-4,2.62-4.66,3.6-8.14a1.71,1.71,0,0,1,1.4-1.24,4.22,4.22,0,0,1,1-.1m0-.51h0a4.55,4.55,0,0,0-1.09.12,2.17,2.17,0,0,0-1.76,1.6,9.42,9.42,0,0,1-1.75,3.19A7.31,7.31,0,0,0,0,21.8c.08,2.71,2.13,5.57,3.84,7.49C4.51,30,5,30.49,5,30.51l.33.3.34-.29,6.67-5.66.15-.13,0-.19c.53-3.69,1.36-9.32,1.45-9.69a.5.5,0,0,0-.09-.46c-.4-.57-4.63-2.59-7.43-2.59Z"/><path class="cls-10" d="M2.73,26.09A16,16,0,0,1,4.21,29C2.82,27.38.58,24.48.51,21.79c-.12-4,2.62-4.66,3.6-8.14a1.71,1.71,0,0,1,1.4-1.24l1.5.12A45.14,45.14,0,0,0,2.43,18.3C.12,21.73,1.53,24.31,2.73,26.09Z"/><path class="cls-11" d="M17.47,38.72c-2,0-3.66-.82-6-1.94-1.31-.64-2.8-1.36-4.66-2.09a7.65,7.65,0,0,1-5-5.56,9.35,9.35,0,0,1,2.74-8.24A12,12,0,0,1,8.8,18.42a40,40,0,0,1,9.85-2l.2,0L24,32.11a5,5,0,0,1-.1,2.75,5.35,5.35,0,0,1-3.79,3.41A8.67,8.67,0,0,1,17.47,38.72Z"/><path class="cls-9" d="M18.67,16.67l5.1,15.52a4.83,4.83,0,0,1-.1,2.59v0A5.11,5.11,0,0,1,20,38a8.4,8.4,0,0,1-2.57.44c-3,0-5.39-2-10.56-4-6.52-2.58-6-9.63-2.16-13.38a11.66,11.66,0,0,1,4.14-2.41,39.45,39.45,0,0,1,9.78-2m.35-.53-.39,0a39.86,39.86,0,0,0-9.92,2,12.13,12.13,0,0,0-4.32,2.52,9.58,9.58,0,0,0-2.8,8.47,7.85,7.85,0,0,0,5.14,5.74c1.85.73,3.33,1.45,4.64,2.08,2.35,1.15,4.06,2,6.1,2a8.77,8.77,0,0,0,2.72-.46,5.59,5.59,0,0,0,4-3.56l0-.07v0a5.46,5.46,0,0,0,.08-2.81L19.15,16.51,19,16.14Z"/><path class="cls-10" d="M23.67,34.8A5.11,5.11,0,0,1,20,38c-4.55,1.47-6.61-1-13.13-3.58s-6-9.63-2.16-13.38a11.66,11.66,0,0,1,4.14-2.41l.86.29a9.61,9.61,0,0,0-6.62,6.37c-1.63,5.25,2.18,7.8,6.32,9.33s6,3.55,9.76,2.74A7.89,7.89,0,0,0,23.67,34.8Z"/><path class="cls-12" d="M9.46,20.29l-.09-.05C8,19.63,4.76,18,3.75,16.4c-1.13-1.88-1.17-6,3.38-9.72a11.4,11.4,0,0,1,7.15-2.75,6.42,6.42,0,0,1,1,.07l.22,0,.16,0L18,14.85,9.8,20.43Z"/><path class="cls-9" d="M14.28,4.18a6.72,6.72,0,0,1,1,.07l.2,0,2.28,10.46-8,5.4-.2-.08-.09,0c-1-.46-4.5-2.1-5.51-3.75C2.8,14.33,3,10.35,7.29,6.88a11.13,11.13,0,0,1,7-2.7m0-.5h0A11.64,11.64,0,0,0,7,6.48C2.3,10.29,2.36,14.57,3.54,16.53c1,1.7,4.36,3.32,5.73,3.94l.07,0,.24.1.25.1.22-.15,8-5.41.28-.19-.07-.33L16,4.17l-.07-.32-.32-.07-.25,0a7.08,7.08,0,0,0-1.05-.07Z"/><path class="cls-10" d="M7.72,19A20,20,0,0,0,9.48,20c-1-.46-4.5-2.1-5.51-3.75C2.8,14.33,3,10.35,7.29,6.88a10.58,10.58,0,0,1,8-2.63c-2.14.43-7.88,2.35-9.68,6C3.39,14.63,4.78,16.91,7.72,19Z"/><path class="cls-13" d="M14.75,16.28l-.06-.1a20.3,20.3,0,0,1-2.57-6.3c-.65-3.26.16-5.81,2.35-7.36A11,11,0,0,1,20.87.25a10.89,10.89,0,0,1,7,2.86,11,11,0,0,0,3.21,1.71c2.17.87,4.4,1.77,5.2,4.91a8.34,8.34,0,0,1-3.65,9.44l-.08,0Z"/><path class="cls-9" d="M20.87.5a10.55,10.55,0,0,1,6.81,2.8C30.36,5.62,34.83,5.13,36,9.79A8.1,8.1,0,0,1,32.48,19L14.9,16.05a20.43,20.43,0,0,1-2.54-6.22c-.5-2.55-.24-5.33,2.25-7.11A10.76,10.76,0,0,1,20.87.5m0-.5h0a11.31,11.31,0,0,0-6.55,2.31c-2.27,1.61-3.12,4.25-2.45,7.62a20.67,20.67,0,0,0,2.61,6.39l.12.19.22,0L32.4,19.44l.17,0,.16-.08a8.61,8.61,0,0,0,3.78-9.72c-.83-3.27-3.13-4.19-5.36-5.08A11,11,0,0,1,28,2.92,11.1,11.1,0,0,0,20.87,0Z"/><path class="cls-10" d="M35.6,15.43a7.19,7.19,0,0,0,.32-2c0-2.4-.12-4.33-2.21-6.13s-5.37-1.49-7.37-3.72S20.22.53,15.82,2.87c-2.91,1.55-3.44,4.88-3.46,7-.5-2.55-.24-5.33,2.25-7.11C20.32-1.33,25,1,27.68,3.3S34.83,5.13,36,9.79A8.14,8.14,0,0,1,35.6,15.43Z"/><path class="cls-14" d="M26.4,36.84a5.89,5.89,0,0,1-1.2-.11,9.81,9.81,0,0,1-7-5.69l0-.1L24.1,16.57a19.73,19.73,0,0,1,4.4-3.44,7,7,0,0,1,3.27-1,5.09,5.09,0,0,1,.55,0c3.46.52,7.68,5.58,6.69,12.66C38.06,31.48,31.34,36.84,26.4,36.84Z"/><path class="cls-9" d="M31.77,12.38l.51,0c3.39.51,7.44,5.48,6.48,12.38-.91,6.39-7.38,11.8-12.35,11.8a5.66,5.66,0,0,1-1.17-.11A9.61,9.61,0,0,1,18.46,31l5.87-14.28a21,21,0,0,1,4.29-3.32,6.77,6.77,0,0,1,3.15-1m0-.51h0a7.2,7.2,0,0,0-3.39,1A21,21,0,0,0,24,16.32l-.07.07,0,.09L18,30.75l-.08.19.07.19a11.08,11.08,0,0,0,.9,1.65A9.55,9.55,0,0,0,25.15,37a6.41,6.41,0,0,0,1.26.12c5,0,11.88-5.46,12.85-12.24,1-7.23-3.34-12.42-6.9-12.95a5.65,5.65,0,0,0-.59,0Z"/><path class="cls-10" d="M38.76,24.79c-1,6.91-8.45,12.66-13.52,11.69a9.06,9.06,0,0,1-5.92-4,19.43,19.43,0,0,1,2.74-3.72c.69-.5,2.09.61,1.84,2.32a5.63,5.63,0,0,1-1.58,3s1.7,2.94,7.45,1,10.28-9.73,7.65-16.41-8.11-4.59-8.11-4.59l-.69-.72a6.16,6.16,0,0,1,3.66-.94C35.67,12.92,39.72,17.89,38.76,24.79Z"/><ellipse class="cls-10" cx="37.96" cy="22.67" rx="0.94" ry="2.15"/><ellipse class="cls-10" cx="36.55" cy="25.41" rx="0.63" ry="1"/><path class="cls-15" d="M17.4,35a7,7,0,0,1-4.57-2.11,10.78,10.78,0,0,0-1.55-1.16c-4.53-2.64-2.72-7.47-2.7-7.52L8.65,24l.49.08,15,2.63V27s0,.23,0,.59c-.08,1.33-.67,5.8-4.45,7.06A7.18,7.18,0,0,1,17.4,35Z"/><path class="cls-9" d="M8.82,24.31l.28.05L23.9,27s0,.22,0,.56c-.1,1.53-.73,5.67-4.28,6.85a6.72,6.72,0,0,1-2.19.39c-2.8,0-4.18-2.17-6-3.23a5.9,5.9,0,0,1-2.59-7.21m-.33-.56-.14.38c0,.05-1.91,5.08,2.81,7.83a12.35,12.35,0,0,1,1.51,1.13,7.13,7.13,0,0,0,4.73,2.17,7.39,7.39,0,0,0,2.35-.42c3.93-1.31,4.54-5.91,4.63-7.29,0-.37,0-.6,0-.6v-.42L24,26.45,9.19,23.86l-.3-.05-.4-.06Z"/><path class="cls-10" d="M23.87,27.51c-.1,1.53-.73,5.67-4.28,6.85-4.37,1.46-6-1.54-8.18-2.84a5.9,5.9,0,0,1-2.59-7.21l.28.05.05.12a8,8,0,0,0,.31,4.09,7.79,7.79,0,0,0,3.34,3c.23.08,2.38,3.2,6.28,2.09s4.07-6.54,4.07-6.54Z"/><path class="cls-16" d="M11.88,15.6l0-.2a11.89,11.89,0,0,1,1.13-4A8.9,8.9,0,0,1,17.66,6.8a9.59,9.59,0,0,1,3.69-.72c4.45,0,8.5,2.89,9.4,6.74a6.16,6.16,0,0,1-.59,4.82,5.41,5.41,0,0,1-2.37,2.1l-.08,0Z"/><path class="cls-9" d="M21.35,6.33c4.18,0,8.24,2.66,9.16,6.54a5.87,5.87,0,0,1-.57,4.63,5.24,5.24,0,0,1-2.25,2l-15.54-4.1a12,12,0,0,1,1.11-3.91A8.62,8.62,0,0,1,17.76,7a9.37,9.37,0,0,1,3.59-.7m0-.51h0a9.74,9.74,0,0,0-3.79.75,9.07,9.07,0,0,0-4.76,4.72,12.46,12.46,0,0,0-1.16,4.09l0,.41.41.11L27.57,20l.16,0,.15-.06a5.75,5.75,0,0,0,2.49-2.21,6.41,6.41,0,0,0,.63-5c-.94-4-5.08-6.94-9.65-6.94Z"/><path class="cls-10" d="M29.94,17.5c.22-1.73.57-8.4-6.07-10-4.63-1.08-8.38,1.64-10.61,4A8.62,8.62,0,0,1,17.76,7c5.16-2.15,11.56.84,12.75,5.84A5.87,5.87,0,0,1,29.94,17.5Z"/><path class="cls-17" d="M14.27,30.57a3.81,3.81,0,0,1-.66-.05c-1.82-.32-3.82-2.44-5-5.29-1.41-3.45-1.21-6.95.52-9.36a6.05,6.05,0,0,1,5-2.8,8.35,8.35,0,0,1,4.38,1.39l.1.07,0,.64L19,21.33l.21,4.57C19.12,26.18,17.65,30.57,14.27,30.57Z"/><path class="cls-9" d="M14.19,13.32a8.23,8.23,0,0,1,4.23,1.34l0,.52.27,6.16.22,4.57s-1.43,4.41-4.67,4.41a4.44,4.44,0,0,1-.62-.05c-3.68-.64-8-9.13-4.3-14.25a5.78,5.78,0,0,1,4.84-2.7m0-.5h0a6.3,6.3,0,0,0-5.25,2.9c-1.79,2.48-2,6.07-.55,9.61,1.19,2.92,3.27,5.11,5.17,5.44a4.34,4.34,0,0,0,.71.06c3.56,0,5.09-4.57,5.15-4.76l0-.09v-.09l-.21-4.57L19,15.16l0-.52v-.25l-.2-.14a8.63,8.63,0,0,0-4.52-1.43Z"/><path class="cls-10" d="M18.94,25.91s-1.62,5-5.29,4.36-8-9.13-4.3-14.25,9.07-1.36,9.07-1.36l0,.52c-1.64-.65-3.82-1.28-5.54-.89-3.21.7-4.84,4.22-4,8.52s3.41,6.75,5.34,6.72,3.55-2.42,3.55-2.42A4.74,4.74,0,0,1,14,23.79c-1-3,1.05-5.82,1.05-5.82s1.77,1.61,3.66,3.37Z"/><path class="cls-18" d="M24.07,30.43A6.12,6.12,0,0,1,18.94,28a2.11,2.11,0,0,1,0-2.25,12.86,12.86,0,0,1,2.13-2.35c.54-.51,1.09-1,1.63-1.61,2.18-2.36.58-6.08.56-6.12l-.07-.16.12-.12a4.9,4.9,0,0,1,3.32-1.47,5.38,5.38,0,0,1,3.82,1.89,7.55,7.55,0,0,1,2.26,5.63A10.29,10.29,0,0,1,29,28.5,7.47,7.47,0,0,1,24.07,30.43Z"/><path class="cls-9" d="M26.68,14.17A5.05,5.05,0,0,1,30.32,16c3.71,3.84,2.39,8.91-1.47,12.32a7.2,7.2,0,0,1-4.77,1.87,5.86,5.86,0,0,1-4.92-2.31,1.86,1.86,0,0,1,.05-2c.68-1.14,2.25-2.34,3.73-3.91,2.32-2.51.6-6.39.6-6.39h0a4.54,4.54,0,0,1,3.12-1.39m0-.5h0a5.13,5.13,0,0,0-3.49,1.54l-.23.24.12.33s1.55,3.61-.52,5.84c-.53.57-1.08,1.09-1.61,1.59a13,13,0,0,0-2.17,2.4,2.37,2.37,0,0,0-.06,2.51,6.31,6.31,0,0,0,5.36,2.56,7.69,7.69,0,0,0,5.1-2A10.58,10.58,0,0,0,33,21.45a7.8,7.8,0,0,0-2.34-5.81,5.58,5.58,0,0,0-4-2Z"/><path class="cls-10" d="M28.85,28.31c-3.87,3.39-8.6,1.5-9.69-.44a1.86,1.86,0,0,1,.05-2,5,5,0,0,0,.36,1.33c.64,1.28,4.61,4.14,8.6.54s4.2-8,1.39-11.26a4.42,4.42,0,0,0-6-.92c.23-.25,3.2-3.25,6.76.43C34,19.83,32.71,24.9,28.85,28.31Z"/><path class="cls-19" d="M19.76,26.82a5.7,5.7,0,0,1-3.91-1.65c-2.88-2.71-2.77-7,.28-10.3a4.89,4.89,0,0,1,3.67-1.5c2.41,0,5.1,1.38,6,3.08,1.06,2-.07,4.1-.6,4.93l-.51.76-.11-.63a5.9,5.9,0,0,0-.86-2.11,4.64,4.64,0,0,1,.59,3.17A4.86,4.86,0,0,1,22.44,26l-.07.06h0A4.54,4.54,0,0,1,19.76,26.82Z"/><path class="cls-9" d="M19.8,13.62c2.44,0,5,1.45,5.79,3,1,1.89-.15,4-.59,4.67l-.16.23s-.69-4.1-4.39-4.1h0s4.23.93,3.66,5.17a4.62,4.62,0,0,1-1.78,3.24.11.11,0,0,1-.06,0,4.29,4.29,0,0,1-2.47.76A5.47,5.47,0,0,1,16,25c-3-2.83-2.46-7,.29-9.95a4.63,4.63,0,0,1,3.48-1.42m0-.5h0A5.11,5.11,0,0,0,16,14.69c-3.15,3.36-3.26,7.85-.27,10.67a6,6,0,0,0,4.08,1.71,4.76,4.76,0,0,0,2.7-.8.56.56,0,0,0,.14-.09,5.11,5.11,0,0,0,1.95-3.41v0l.7-1.05.15-.22c.57-.88,1.74-3.11.62-5.2-.94-1.77-3.74-3.21-6.23-3.21Z"/><path class="cls-10" d="M25,21.23a4.26,4.26,0,0,0-.2-4.56c-1.65-2.12-5.11-2.94-6.93-2a6.32,6.32,0,0,0-3.17,6.26,5.28,5.28,0,0,0,5,5.24,4.72,4.72,0,0,0,2.54-.35A4.92,4.92,0,0,1,16,25c-3-2.83-2.45-7,.29-9.95s8-.77,9.27,1.53c1,1.89-.15,4-.59,4.67Z"/><path class="cls-20" d="M24.58,22.32s-.34-3.95-3.7-4.8-4.52,3.32-3,4.43,4,.12,3.68-1.37-1.84-1.12-2.05-.13"/><ellipse class="cls-10" cx="21.08" cy="1.85" rx="2.26" ry="0.98"/><ellipse class="cls-10" cx="23.05" cy="3.45" rx="0.83" ry="0.48"/><ellipse class="cls-10" cx="19.72" cy="14.49" rx="1.26" ry="0.79"/><ellipse class="cls-10" cx="21.31" cy="15.52" rx="0.56" ry="0.35"/><ellipse class="cls-10" cx="5.7" cy="10.57" rx="1.7" ry="0.97" transform="translate(-6.3 10.67) rotate(-62.15)"/><ellipse class="cls-10" cx="6.02" cy="12.98" rx="0.77" ry="0.46" transform="translate(-8.27 12.24) rotate(-62.15)"/></g></g></g></svg>