<svg xmlns="http://www.w3.org/2000/svg" xmlns:xlink="http://www.w3.org/1999/xlink" viewBox="0 0 30.53 27.81"><defs><style>.cls-1{isolation:isolate;}.cls-2{fill:url(#linear-gradient);}.cls-3{fill:#34254a;}.cls-4{fill:#261b36;opacity:0.32;}.cls-11,.cls-13,.cls-4,.cls-5{mix-blend-mode:overlay;}.cls-14,.cls-5,.cls-7{fill:#fff;}.cls-5,.cls-7{opacity:0.37;}.cls-6{fill:url(#linear-gradient-2);}.cls-8{fill:url(#linear-gradient-3);}.cls-9{fill:url(#linear-gradient-4);}.cls-10{fill:url(#linear-gradient-5);}.cls-11{fill:#1d172e;}.cls-12{fill:url(#linear-gradient-6);}</style><linearGradient id="linear-gradient" x1="7.33" y1="2.33" x2="7.33" y2="14.53" gradientUnits="userSpaceOnUse"><stop offset="0" stop-color="#8c76ae"/><stop offset="0.13" stop-color="#826da2"/><stop offset="0.46" stop-color="#6c5a88"/><stop offset="0.76" stop-color="#604f78"/><stop offset="1" stop-color="#5b4b73"/></linearGradient><linearGradient id="linear-gradient-2" x1="10.21" y1="4.16" x2="10.21" y2="27.5" xlink:href="#linear-gradient"/><linearGradient id="linear-gradient-3" x1="-1646.45" y1="2.33" x2="-1646.45" y2="14.53" gradientTransform="matrix(-1, 0, 0, 1, -1623.25, 0)" xlink:href="#linear-gradient"/><linearGradient id="linear-gradient-4" x1="-1643.57" y1="4.16" x2="-1643.57" y2="27.5" gradientTransform="matrix(-1, 0, 0, 1, -1623.25, 0)" xlink:href="#linear-gradient"/><linearGradient id="linear-gradient-5" x1="15.31" y1="0.22" x2="15.31" y2="9.47" gradientUnits="userSpaceOnUse"><stop offset="0.24" stop-color="#f7daaf"/><stop offset="0.35" stop-color="#f9d7a2"/><stop offset="0.6" stop-color="#fcd288"/><stop offset="0.82" stop-color="#fece78"/><stop offset="1" stop-color="#ffcd73"/></linearGradient><linearGradient id="linear-gradient-6" x1="15.27" y1="1.94" x2="15.31" y2="5.09" gradientUnits="userSpaceOnUse"><stop offset="0" stop-color="#9ffaf5"/><stop offset="1" stop-color="#75c9c7"/></linearGradient></defs><g class="cls-1"><g id="Layer_2" data-name="Layer 2"><g id="Layer_1-2" data-name="Layer 1"><path class="cls-2" d="M3.88,14.53a4.79,4.79,0,0,1-3.3-3,3.37,3.37,0,0,1,.7-3.71A5.35,5.35,0,0,1,2,7.22,20.53,20.53,0,0,1,6.23,5l.06,0A76.09,76.09,0,0,1,14,2.34h.09a.31.31,0,0,1,.3.34l-.19,2.21a.42.42,0,0,1-.08.18c-.26.3-6.5,7.38-9.16,9.08l-.06,0a2.77,2.77,0,0,1-.6.3,1,1,0,0,1-.36.06Z"/><path class="cls-3" d="M14.05,2.64l-.2,2.21s-6.44,7.33-9.1,9h0a2.18,2.18,0,0,1-.57.29.71.71,0,0,1-.27.05C2.3,14.11-1,10.67,1.5,8.05a4.91,4.91,0,0,1,.67-.58,20.85,20.85,0,0,1,4.18-2.2l.06,0a75.86,75.86,0,0,1,7.64-2.61m0-.62a.51.51,0,0,0-.17,0A76.09,76.09,0,0,0,6.17,4.68H6.11A20.87,20.87,0,0,0,1.8,7a4.6,4.6,0,0,0-.74.65,3.65,3.65,0,0,0-.76,4c.62,1.61,2.29,3.09,3.56,3.18h0a1.45,1.45,0,0,0,.51-.09A2.49,2.49,0,0,0,5,14.44l.08,0h0c2.7-1.73,9-8.84,9.23-9.14a.58.58,0,0,0,.15-.35l.2-2.22a.61.61,0,0,0-.22-.52A.58.58,0,0,0,14.05,2Zm0,1.23Z"/><path class="cls-4" d="M14.05,2.64l-.2,2.21s-7.56,8.6-9.68,9.32A7.6,7.6,0,0,0,5,13.51c3-2.9,6.85-7.75,6.35-7.75s-4.61,4-5.49,2.45,5-3.43,4-3.65C9,4.39,4.05,6.6,2.17,7.47,5.39,5,14.05,2.64,14.05,2.64Z"/><path class="cls-5" d="M4.06,14a1.78,1.78,0,0,0,.68-.1,2.18,2.18,0,0,1-.57.29.71.71,0,0,1-.27.05C2.3,14.11-1,10.67,1.5,8.05a4.91,4.91,0,0,1,.67-.58,20.85,20.85,0,0,1,4.18-2.2c-2.07,1-4.18,2-4.8,3.37A4,4,0,0,0,4.06,14Z"/><ellipse class="cls-5" cx="1.49" cy="9.98" rx="0.64" ry="1.1"/><ellipse class="cls-5" cx="2.22" cy="11.18" rx="0.27" ry="0.54"/><path class="cls-6" d="M11.34,27.5c-.33,0-5.1-3.26-5.26-4.14,0-.13-.06-.3,1-3.22s2.81-7.52,3.73-9.9l2.28-5.88a.31.31,0,0,1,.29-.2h0a.31.31,0,0,1,.28.22l.68,2.09a.29.29,0,0,1,0,.13L14,9.12a.47.47,0,0,1,0,.19,2.29,2.29,0,0,1,0,.33c-.61,5.08-1.65,13.51-2.11,16.47C11.67,27.37,11.65,27.5,11.34,27.5Z"/><path class="cls-3" d="M13.37,4.47l.68,2.09s-.13,1-.31,2.52a.75.75,0,0,1,0,.2s0,.06,0,.1a1.83,1.83,0,0,1,0,.21.15.15,0,0,0,0,.06C13.11,14.32,12,23,11.56,26.06a5.22,5.22,0,0,1-.22,1.14c-.24,0-4.83-3.19-4.95-3.89a17.83,17.83,0,0,1,1-3.06c1-2.67,2.46-6.62,3.72-9.9,0,0,0,0,0,0,1.26-3.25,2.27-5.83,2.27-5.83m0-.61a.61.61,0,0,0-.57.39l-2.28,5.83a.19.19,0,0,0,0,.08C9.57,12.55,7.88,17,6.78,20s-1,3.17-1,3.4c.18,1,5,4.37,5.56,4.37s.63-.35.83-1.65c.46-3,1.51-11.39,2.1-16.42a.11.11,0,0,0,0-.05c0-.1,0-.19,0-.28v0h0a1.29,1.29,0,0,0,0-.25c.18-1.52.31-2.49.31-2.49a.63.63,0,0,0,0-.27L14,4.28a.59.59,0,0,0-.56-.42Z"/><path class="cls-4" d="M11.56,26.06s1.5-15.61.85-15.9c-.45-.2-3.32,6.15-5,10.09,1.92-5.35,6-15.78,6-15.78l.68,2.09S12.24,21.75,11.56,26.06Z"/><path class="cls-5" d="M11.07,26.25c.31,0,2.19-13.61,2.6-16.6C13.11,14.32,12,23,11.56,26.06a5.22,5.22,0,0,1-.22,1.14c-.24,0-4.83-3.19-4.95-3.89a17.83,17.83,0,0,1,1-3.06c1-2.67,2.46-6.62,3.72-9.9-1.66,4.92-4,12-4,12.55C7,23.81,10.73,26.25,11.07,26.25Z"/><ellipse class="cls-5" cx="8" cy="20.11" rx="1.01" ry="0.5" transform="translate(-13.52 22.45) rotate(-74.49)"/><ellipse class="cls-5" cx="8.33" cy="21.45" rx="0.42" ry="0.26" transform="translate(-14.56 23.74) rotate(-74.49)"/><path class="cls-7" d="M13.74,9.08a.75.75,0,0,1,0,.2Z"/><path class="cls-8" d="M26.63,14.53a1,1,0,0,1-.38-.07,2.54,2.54,0,0,1-.57-.29.41.41,0,0,1-.11-.07c-2.61-1.66-8.85-8.74-9.12-9a.31.31,0,0,1-.07-.18l-.2-2.21a.32.32,0,0,1,.11-.27.37.37,0,0,1,.2-.07h.08A75.81,75.81,0,0,1,24.24,5a20.31,20.31,0,0,1,4.31,2.27,4.58,4.58,0,0,1,.71.61A3.39,3.39,0,0,1,30,11.55a4.75,4.75,0,0,1-3.3,3Z"/><path class="cls-3" d="M16.49,2.64a76.13,76.13,0,0,1,7.63,2.61l.07,0a21.13,21.13,0,0,1,4.18,2.2,4.27,4.27,0,0,1,.66.58c2.46,2.62-.8,6.06-2.4,6.17a.74.74,0,0,1-.27-.05,2.15,2.15,0,0,1-.56-.29h0c-2.65-1.7-9.1-9-9.1-9l-.19-2.21m0-.62a.62.62,0,0,0-.4.15.6.6,0,0,0-.21.52l.19,2.22a.65.65,0,0,0,.15.35c.27.3,6.54,7.41,9.23,9.14h0l.08,0a2.75,2.75,0,0,0,.65.32,1.38,1.38,0,0,0,.45.08c1.31-.09,3-1.57,3.61-3.18a3.68,3.68,0,0,0-.76-4A4.87,4.87,0,0,0,28.72,7a21,21,0,0,0-4.3-2.27l-.05,0a78.64,78.64,0,0,0-7.72-2.63.45.45,0,0,0-.16,0Z"/><path class="cls-4" d="M16.49,2.64l.19,2.21s7.57,8.6,9.68,9.32a7.53,7.53,0,0,1-.77-.66c-3-2.9-6.85-7.75-6.36-7.75s4.61,4,5.5,2.45-5-3.43-4-3.65c.82-.17,5.77,2,7.65,2.91C25.15,5,16.49,2.64,16.49,2.64Z"/><path class="cls-5" d="M26.47,14a1.73,1.73,0,0,1-.67-.1,2.15,2.15,0,0,0,.56.29.74.74,0,0,0,.27.05c1.6-.11,4.86-3.55,2.4-6.17a4.27,4.27,0,0,0-.66-.58,21.13,21.13,0,0,0-4.18-2.2c2.06,1,4.17,2,4.8,3.37A4,4,0,0,1,26.47,14Z"/><ellipse class="cls-5" cx="29.05" cy="9.98" rx="0.64" ry="1.1"/><ellipse class="cls-5" cx="28.31" cy="11.18" rx="0.27" ry="0.54"/><path class="cls-9" d="M19.19,27.5c-.31,0-.33-.13-.52-1.39C18.18,23,17.12,14.38,16.56,9.68c0-.15,0-.23,0-.3a2.85,2.85,0,0,1,0-.3L16.18,6.6a.27.27,0,0,1,0-.13l.67-2.09a.32.32,0,0,1,.29-.22h0a.31.31,0,0,1,.29.2l2.28,5.83a.36.36,0,0,1,0,.11c.91,2.32,2.62,6.78,3.72,9.84s1,3.09,1,3.23C24.3,24.24,19.53,27.5,19.19,27.5Z"/><path class="cls-3" d="M17.16,4.47l2.28,5.83a.13.13,0,0,0,0,0c1.27,3.28,2.77,7.23,3.73,9.9a18.94,18.94,0,0,1,1,3.06c-.12.7-4.71,3.89-5,3.89A6.09,6.09,0,0,1,19,26.06c-.48-3.08-1.55-11.74-2.1-16.41a.15.15,0,0,0,0-.06.88.88,0,0,1,0-.21s0-.08,0-.1a1.5,1.5,0,0,1,0-.2c-.19-1.53-.31-2.52-.31-2.52l.67-2.09m0-.61h0a.6.6,0,0,0-.57.42L15.9,6.37a.82.82,0,0,0,0,.27s.12,1,.3,2.49a1.92,1.92,0,0,0,0,.22h0a.2.2,0,0,0,0,.07,1.39,1.39,0,0,0,0,.27.43.43,0,0,1,0,.05c.6,5,1.64,13.45,2.1,16.42.21,1.3.26,1.65.83,1.65s5.38-3.37,5.56-4.39c.05-.21.09-.38-1-3.38S21,12.55,20,10.16l0-.08L17.74,4.25a.62.62,0,0,0-.58-.39Z"/><path class="cls-4" d="M19,26.06s-1.5-15.61-.85-15.9c.46-.2,3.32,6.15,5.06,10.09-1.92-5.35-6-15.78-6-15.78l-.67,2.09S18.3,21.75,19,26.06Z"/><path class="cls-5" d="M19.46,26.25c-.3,0-2.18-13.61-2.59-16.6C17.42,14.32,18.49,23,19,26.06a6.09,6.09,0,0,0,.22,1.14c.25,0,4.84-3.19,5-3.89a18.94,18.94,0,0,0-1-3.06c-1-2.67-2.46-6.62-3.73-9.9,1.66,4.92,4,12,4,12.55C23.5,23.81,19.81,26.25,19.46,26.25Z"/><ellipse class="cls-5" cx="22.53" cy="20.11" rx="0.5" ry="1.01" transform="translate(-4.56 6.76) rotate(-15.51)"/><ellipse class="cls-5" cx="22.2" cy="21.45" rx="0.26" ry="0.42" transform="translate(-4.93 6.72) rotate(-15.51)"/><path class="cls-7" d="M16.8,9.08a1.5,1.5,0,0,0,0,.2C16.81,9.14,16.8,9.08,16.8,9.08Z"/><path class="cls-10" d="M15.3,9.47a.22.22,0,0,1-.18-.1l0-.08L12,5a.2.2,0,0,1,0-.25L15.13.32a.21.21,0,0,1,.36,0l3.11,4.4a.2.2,0,0,1,0,.25L15.49,9.38a.21.21,0,0,1-.18.09Z"/><path class="cls-3" d="M15.31.44l3.11,4.41-3.11,4.4-.05-.08L12.2,4.85,15.31.44m0-.44A.42.42,0,0,0,15,.19l-3.12,4.4a.47.47,0,0,0,0,.51L14.9,9.43l0,.05a.44.44,0,0,0,.37.21h0a.44.44,0,0,0,.36-.19l3.11-4.4a.44.44,0,0,0,0-.51L15.67.19A.44.44,0,0,0,15.31,0Z"/><path class="cls-11" d="M18.42,4.85l-3.11,4.4-.05-.08c0-2.78.05-8.73.05-8.73Z"/><polygon class="cls-11" points="18.42 4.85 15.31 9.25 15.26 9.17 12.2 4.85 15.25 4.56 18.42 4.85"/><path class="cls-12" d="M15.31,8.09l-.06,0L13,4.88l2.24-3.24a.09.09,0,0,1,.06,0h0a.06.06,0,0,1,.06,0L17.6,4.8,15.37,8.06a.09.09,0,0,1-.06,0Z"/><path class="cls-3" d="M15.31,1.68,16.6,3.51l.94,1.33L15.31,8,13.07,4.84l2.24-3.16m0-.15a.17.17,0,0,0-.12.06L13,4.75a.19.19,0,0,0,0,.18L15.19,8.1a.14.14,0,0,0,.12.06h0a.13.13,0,0,0,.12-.06l2.23-3.17a.14.14,0,0,0,0-.17l-.94-1.33L15.43,1.59a.16.16,0,0,0-.12-.06Z"/><path class="cls-11" d="M17.54,4.85,15.31,8,13.07,4.85a2.66,2.66,0,0,0,2,.47c.7-.16,1.64-1.33,1.51-1.8Z"/><polygon class="cls-5" points="17.54 4.84 15.31 8.01 15.31 1.68 16.6 3.51 17.54 4.84"/><polygon class="cls-5" points="17.54 4.84 15.31 8.01 13.07 4.84 15.31 4.69 17.54 4.84"/><g class="cls-13"><path class="cls-14" d="M15.31,2.11,16.4,3.66l.84,1.19L15.31,7.59,13.37,4.85l1.94-2.74m0-.43L13.07,4.85,15.31,8l2.23-3.17L16.6,3.52,15.31,1.68Z"/></g></g></g></g></svg>